<svg width="20" height="21" viewBox="0 0 20 21" fill="none" xmlns="http://www.w3.org/2000/svg">
<g clipPath="url(#clip0_1316_1392)">
<path opacity="0.4" d="M5.74932 8.5849L9.72432 6.81823C9.89932 6.74323 10.0993 6.74323 10.266 6.81823L14.2493 8.5849C14.5993 8.74323 14.9243 8.31823 14.6827 8.01823L10.516 2.92656C10.2327 2.57656 9.76599 2.57656 9.48266 2.92656L5.31599 8.01823C5.07432 8.31823 5.39932 8.74323 5.74932 8.5849Z" fill="white"/>
<path opacity="0.4" d="M5.74883 13.4171L9.73216 15.1837C9.90716 15.2587 10.1072 15.2587 10.2738 15.1837L14.2572 13.4171C14.6072 13.2587 14.9322 13.6837 14.6905 13.9837L10.5238 19.0754C10.2405 19.4254 9.77383 19.4254 9.4905 19.0754L5.32383 13.9837C5.07383 13.6837 5.3905 13.2587 5.74883 13.4171Z" fill="white"/>
<path d="M9.81745 8.91094L6.37578 10.6276C6.06745 10.7776 6.06745 11.2193 6.37578 11.3693L9.81745 13.0859C9.93411 13.1443 10.0758 13.1443 10.1924 13.0859L13.6341 11.3693C13.9424 11.2193 13.9424 10.7776 13.6341 10.6276L10.1924 8.91094C10.0674 8.8526 9.93411 8.8526 9.81745 8.91094Z" fill="white"/>
</g>
<defs>
<clipPath id="clip0_1316_1392">
<rect width="20" height="20" fill="white" transform="translate(0 0.5)"/>
</clipPath>
</defs>
</svg>
