{"asset":{"version":"2.0","generator":"THREE.GLTFExporter"},"scenes":[{"nodes":[0],"name":"AuxScene"}],"scene":0,"nodes":[{"mesh":0}],"bufferViews":[{"buffer":0,"byteOffset":0,"byteLength":4320,"target":34962,"byteStride":12},{"buffer":0,"byteOffset":4320,"byteLength":4320,"target":34962,"byteStride":12}],"buffers":[{"byteLength":8640,"uri":"data:application/octet-stream;base64,"}],"accessors":[{"bufferView":0,"componentType":5126,"count":360,"max":[14.100001335144043,4.199999809265137,7.300000190734863],"min":[-14.300000190734863,0.20000000298023224,-7.099999904632568],"type":"VEC3"},{"bufferView":1,"componentType":5126,"count":360,"max":[0.8084526062011719,1,0.5547003149986267],"min":[-0.8295609354972839,0.33333027362823486,-0.9128714799880981],"type":"VEC3"}],"materials":[{"pbrMetallicRoughness":{"baseColorFactor":[0.5019607843137255,0.5019607843137255,0.5019607843137255,1],"metallicFactor":0,"roughnessFactor":1}}],"meshes":[{"primitives":[{"mode":4,"attributes":{"POSITION":0,"NORMAL":1},"material":0}]}]}