<?xml version="1.0" standalone="no"?>
<!DOCTYPE svg PUBLIC "-//W3C//DTD SVG 20010904//EN"
 "http://www.w3.org/TR/2001/REC-SVG-20010904/DTD/svg10.dtd">
<svg version="1.0" xmlns="http://www.w3.org/2000/svg"
 width="418.000000pt" height="418.000000pt" viewBox="0 0 418.000000 418.000000"
 preserveAspectRatio="xMidYMid meet">
<metadata>
Created by potrace 1.14, written by Peter Selinger 2001-2017
</metadata>
<g transform="translate(0.000000,418.000000) scale(0.100000,-0.100000)"
fill="#000000" stroke="none">
<path d="M2045 3386 c-143 -58 -317 -146 -338 -169 -9 -11 -21 -36 -27 -56
-15 -55 -84 -285 -116 -384 -24 -75 -32 -88 -53 -94 -81 -19 -282 -75 -315
-88 -44 -18 -46 -20 -117 -106 -29 -35 -62 -73 -72 -84 -30 -32 -107 -153
-145 -230 -19 -38 -53 -98 -75 -133 -22 -34 -42 -70 -43 -79 -2 -10 10 -44 27
-76 58 -115 261 -400 307 -433 15 -10 138 -44 214 -58 40 -7 102 -19 123 -22
120 -22 134 -29 140 -84 2 -14 6 -45 9 -70 14 -114 19 -140 41 -215 12 -44 34
-107 47 -140 21 -52 30 -63 73 -87 27 -15 81 -36 120 -49 38 -12 108 -37 154
-56 96 -40 149 -44 234 -17 12 4 24 10 27 14 3 4 70 31 150 60 202 73 197 69
243 209 20 64 40 132 43 151 3 19 10 55 15 80 6 25 13 56 15 70 14 79 45 114
105 122 13 2 30 7 37 12 7 4 16 5 19 2 3 -3 13 -1 22 3 9 5 37 12 64 15 26 4
58 11 70 15 13 5 41 12 63 15 64 10 154 38 154 47 0 5 24 42 53 82 72 98 168
256 212 349 42 88 41 100 -19 199 -19 31 -37 67 -41 80 -4 13 -20 44 -35 69
-16 25 -37 63 -47 85 -10 22 -20 42 -23 45 -3 3 -31 44 -62 91 -63 95 -64 96
-130 132 -47 26 -302 86 -378 89 -37 1 -38 2 -49 52 -6 28 -12 56 -13 61 -1 6
-13 46 -26 90 -13 44 -26 91 -29 105 -3 14 -9 30 -13 35 -6 8 -15 37 -26 80
-9 42 -49 121 -67 135 -12 10 -60 33 -107 50 -82 32 -208 82 -280 112 -34 14
-39 13 -135 -26z"/>
</g>
</svg>
