{
    "asset" : {
        "generator" : "Khronos glTF Blender I/O v3.2.40",
        "version" : "2.0"
    },
    "scene" : 0,
    "scenes" : [
        {
            "name" : "Scene",
            "nodes" : [
                0
            ]
        }
    ],
    "nodes" : [
        {
            "mesh" : 0,
            "name" : "Helmet-Body_Helmet-Body_0"
        }
    ],
    "materials" : [
        {
            "doubleSided" : true,
            "emissiveFactor" : [
                1,
                1,
                1
            ],
            "emissiveTexture" : {
                "index" : 0
            },
            "name" : "Helmet-Body.001",
            "pbrMetallicRoughness" : {
                "baseColorTexture" : {
                    "index" : 1
                },
                "metallicFactor" : 0,
                "roughnessFactor" : 0.6000000238418579
            }
        }
    ],
    "meshes" : [
        {
            "name" : "Helmet-Body_Helmet-Body_0",
            "primitives" : [
                {
                    "attributes" : {
                        "POSITION" : 0,
                        "NORMAL" : 1,
                        "TEXCOORD_0" : 2,
                        "TEXCOORD_1" : 3,
                        "TEXCOORD_2" : 4
                    },
                    "indices" : 5,
                    "material" : 0
                }
            ]
        }
    ],
    "textures" : [
        {
            "sampler" : 0,
            "source" : 0
        },
        {
            "sampler" : 0,
            "source" : 1
        }
    ],
    "images" : [
        {
            "mimeType" : "image/jpeg",
            "name" : "Helmet-Body_emissive",
            "uri" : "textures/Helmet-Body_emissive.jpg"
        },
        {
            "mimeType" : "image/jpeg",
            "name" : "Helmet-Body_baseColor",
            "uri" : "textures/Helmet-Body_baseColor.jpg"
        }
    ],
    "accessors" : [
        {
            "bufferView" : 0,
            "componentType" : 5126,
            "count" : 6266,
            "max" : [
                0.13871939480304718,
                0.359214723110199,
                0.13338634371757507
            ],
            "min" : [
                -0.1420322060585022,
                0.003888249397277832,
                -0.12963686883449554
            ],
            "type" : "VEC3"
        },
        {
            "bufferView" : 1,
            "componentType" : 5126,
            "count" : 6266,
            "type" : "VEC3"
        },
        {
            "bufferView" : 2,
            "componentType" : 5126,
            "count" : 6266,
            "type" : "VEC2"
        },
        {
            "bufferView" : 3,
            "componentType" : 5126,
            "count" : 6266,
            "type" : "VEC2"
        },
        {
            "bufferView" : 4,
            "componentType" : 5126,
            "count" : 6266,
            "type" : "VEC2"
        },
        {
            "bufferView" : 5,
            "componentType" : 5123,
            "count" : 17700,
            "type" : "SCALAR"
        }
    ],
    "bufferViews" : [
        {
            "buffer" : 0,
            "byteLength" : 75192,
            "byteOffset" : 0
        },
        {
            "buffer" : 0,
            "byteLength" : 75192,
            "byteOffset" : 75192
        },
        {
            "buffer" : 0,
            "byteLength" : 50128,
            "byteOffset" : 150384
        },
        {
            "buffer" : 0,
            "byteLength" : 50128,
            "byteOffset" : 200512
        },
        {
            "buffer" : 0,
            "byteLength" : 50128,
            "byteOffset" : 250640
        },
        {
            "buffer" : 0,
            "byteLength" : 35400,
            "byteOffset" : 300768
        }
    ],
    "samplers" : [
        {
            "magFilter" : 9729,
            "minFilter" : 9987
        }
    ],
    "buffers" : [
        {
            "byteLength" : 336168,
            "uri" : "helmet.bin"
        }
    ]
}
