<svg width="193" height="61" viewBox="0 0 193 61" fill="none" xmlns="http://www.w3.org/2000/svg">
<rect y="18.8687" width="178" height="36" rx="18" fill="#363C3F"/>
<path d="M0 36.8687C0 26.9275 8.05888 18.8687 18 18.8687H83.5L77 54.8687H18C8.05888 54.8687 0 46.8098 0 36.8687Z" fill="#29B080"/>
<path d="M43.556 43.0227C42.8747 43.0227 42.2353 42.906 41.638 42.6727C41.05 42.43 40.56 42.0847 40.168 41.6367L41.596 40.2227C41.7733 40.484 42.03 40.6987 42.366 40.8667C42.7113 41.0253 43.0847 41.1047 43.486 41.1047C43.8407 41.1047 44.1487 41.044 44.41 40.9227C44.6713 40.792 44.8767 40.61 45.026 40.3767C45.1753 40.134 45.25 39.854 45.25 39.5367C45.25 39.21 45.1753 38.93 45.026 38.6967C44.8767 38.4633 44.6667 38.286 44.396 38.1647C44.1347 38.034 43.836 37.9687 43.5 37.9687C43.164 37.9687 42.856 38.0153 42.576 38.1087C42.296 38.1927 42.0393 38.3233 41.806 38.5007L41.988 37.1007C42.2027 36.9327 42.408 36.7973 42.604 36.6947C42.8 36.5827 43.0147 36.4987 43.248 36.4427C43.4813 36.3867 43.7567 36.3587 44.074 36.3587C44.802 36.3587 45.4133 36.508 45.908 36.8067C46.412 37.1053 46.79 37.502 47.042 37.9967C47.3033 38.4913 47.434 39.0373 47.434 39.6347C47.434 40.288 47.2707 40.8713 46.944 41.3847C46.6267 41.898 46.1787 42.2993 45.6 42.5887C45.0213 42.878 44.34 43.0227 43.556 43.0227ZM41.806 38.5007L40.854 37.6187L41.33 32.9847H43.318L42.8 37.5767L41.806 38.5007ZM41.624 34.8467L41.33 32.9847H46.888V34.8467H41.624ZM51.39 43.0227C50.7087 43.0227 50.0693 42.906 49.472 42.6727C48.884 42.43 48.394 42.0847 48.002 41.6367L49.43 40.2227C49.6073 40.484 49.864 40.6987 50.2 40.8667C50.5453 41.0253 50.9187 41.1047 51.32 41.1047C51.6747 41.1047 51.9827 41.044 52.244 40.9227C52.5053 40.792 52.7107 40.61 52.86 40.3767C53.0093 40.134 53.084 39.854 53.084 39.5367C53.084 39.21 53.0093 38.93 52.86 38.6967C52.7107 38.4633 52.5007 38.286 52.23 38.1647C51.9687 38.034 51.67 37.9687 51.334 37.9687C50.998 37.9687 50.69 38.0153 50.41 38.1087C50.13 38.1927 49.8733 38.3233 49.64 38.5007L49.822 37.1007C50.0367 36.9327 50.242 36.7973 50.438 36.6947C50.634 36.5827 50.8487 36.4987 51.082 36.4427C51.3153 36.3867 51.5907 36.3587 51.908 36.3587C52.636 36.3587 53.2473 36.508 53.742 36.8067C54.246 37.1053 54.624 37.502 54.876 37.9967C55.1373 38.4913 55.268 39.0373 55.268 39.6347C55.268 40.288 55.1047 40.8713 54.778 41.3847C54.4607 41.898 54.0127 42.2993 53.434 42.5887C52.8553 42.878 52.174 43.0227 51.39 43.0227ZM49.64 38.5007L48.688 37.6187L49.164 32.9847H51.152L50.634 37.5767L49.64 38.5007ZM49.458 34.8467L49.164 32.9847H54.722V34.8467H49.458ZM60.344 43.0227C59.5506 43.0227 58.832 42.808 58.188 42.3787C57.544 41.9493 57.0353 41.352 56.662 40.5867C56.298 39.812 56.116 38.9207 56.116 37.9127C56.116 36.8953 56.298 36.0087 56.662 35.2527C57.026 34.4873 57.5253 33.8947 58.16 33.4747C58.7946 33.0453 59.5133 32.8307 60.316 32.8307C61.128 32.8307 61.8513 33.0453 62.486 33.4747C63.1206 33.8947 63.62 34.4873 63.984 35.2527C64.3573 36.018 64.544 36.9093 64.544 37.9267C64.544 38.944 64.3573 39.8353 63.984 40.6007C63.62 41.366 63.1206 41.9633 62.486 42.3927C61.8606 42.8127 61.1466 43.0227 60.344 43.0227ZM60.33 41.0767C60.7406 41.0767 61.0953 40.96 61.394 40.7267C61.6926 40.484 61.9213 40.1293 62.08 39.6627C62.248 39.1867 62.332 38.608 62.332 37.9267C62.332 37.236 62.248 36.6573 62.08 36.1907C61.9213 35.724 61.6926 35.374 61.394 35.1407C61.0953 34.898 60.736 34.7767 60.316 34.7767C59.9146 34.7767 59.56 34.8933 59.252 35.1267C58.9533 35.36 58.7246 35.71 58.566 36.1767C58.4073 36.6433 58.328 37.222 58.328 37.9127C58.328 38.6033 58.4073 39.182 58.566 39.6487C58.7246 40.1153 58.9533 40.47 59.252 40.7127C59.56 40.9553 59.9193 41.0767 60.33 41.0767ZM65.0342 43.6387L68.4642 32.2987H70.3262L66.8962 43.6387H65.0342ZM70.7012 41.6367L74.4952 37.7167C74.7286 37.4833 74.9152 37.2687 75.0552 37.0727C75.1952 36.8767 75.2979 36.6947 75.3632 36.5267C75.4286 36.3493 75.4612 36.172 75.4612 35.9947C75.4612 35.612 75.3352 35.3133 75.0832 35.0987C74.8406 34.8747 74.5186 34.7627 74.1172 34.7627C73.7252 34.7627 73.3706 34.87 73.0532 35.0847C72.7452 35.29 72.4466 35.6307 72.1572 36.1067L70.6872 34.8327C71.0792 34.17 71.5786 33.6707 72.1852 33.3347C72.7919 32.9987 73.4872 32.8307 74.2712 32.8307C74.9526 32.8307 75.5406 32.9567 76.0352 33.2087C76.5392 33.4607 76.9266 33.82 77.1972 34.2867C77.4772 34.7533 77.6172 35.2993 77.6172 35.9247C77.6172 36.3167 77.5659 36.6807 77.4632 37.0167C77.3606 37.3433 77.1926 37.67 76.9592 37.9967C76.7352 38.314 76.4319 38.664 76.0492 39.0467L73.4172 41.6647L70.7012 41.6367ZM70.7012 42.8687V41.6367L72.5632 40.9927H77.8132V42.8687H70.7012ZM82.9436 43.0227C82.1502 43.0227 81.4316 42.808 80.7876 42.3787C80.1436 41.9493 79.6349 41.352 79.2616 40.5867C78.8976 39.812 78.7156 38.9207 78.7156 37.9127C78.7156 36.8953 78.8976 36.0087 79.2616 35.2527C79.6256 34.4873 80.1249 33.8947 80.7596 33.4747C81.3942 33.0453 82.1129 32.8307 82.9156 32.8307C83.7276 32.8307 84.4509 33.0453 85.0856 33.4747C85.7202 33.8947 86.2196 34.4873 86.5836 35.2527C86.9569 36.018 87.1436 36.9093 87.1436 37.9267C87.1436 38.944 86.9569 39.8353 86.5836 40.6007C86.2196 41.366 85.7202 41.9633 85.0856 42.3927C84.4602 42.8127 83.7462 43.0227 82.9436 43.0227ZM82.9296 41.0767C83.3402 41.0767 83.6949 40.96 83.9936 40.7267C84.2922 40.484 84.5209 40.1293 84.6796 39.6627C84.8476 39.1867 84.9316 38.608 84.9316 37.9267C84.9316 37.236 84.8476 36.6573 84.6796 36.1907C84.5209 35.724 84.2922 35.374 83.9936 35.1407C83.6949 34.898 83.3356 34.7767 82.9156 34.7767C82.5142 34.7767 82.1596 34.8933 81.8516 35.1267C81.5529 35.36 81.3242 35.71 81.1656 36.1767C81.0069 36.6433 80.9276 37.222 80.9276 37.9127C80.9276 38.6033 81.0069 39.182 81.1656 39.6487C81.3242 40.1153 81.5529 40.47 81.8516 40.7127C82.1596 40.9553 82.5189 41.0767 82.9296 41.0767ZM92.2678 43.0227C91.4745 43.0227 90.7558 42.808 90.1118 42.3787C89.4678 41.9493 88.9591 41.352 88.5858 40.5867C88.2218 39.812 88.0398 38.9207 88.0398 37.9127C88.0398 36.8953 88.2218 36.0087 88.5858 35.2527C88.9498 34.4873 89.4491 33.8947 90.0838 33.4747C90.7185 33.0453 91.4371 32.8307 92.2398 32.8307C93.0518 32.8307 93.7751 33.0453 94.4098 33.4747C95.0445 33.8947 95.5438 34.4873 95.9078 35.2527C96.2811 36.018 96.4678 36.9093 96.4678 37.9267C96.4678 38.944 96.2811 39.8353 95.9078 40.6007C95.5438 41.366 95.0445 41.9633 94.4098 42.3927C93.7845 42.8127 93.0705 43.0227 92.2678 43.0227ZM92.2538 41.0767C92.6645 41.0767 93.0191 40.96 93.3178 40.7267C93.6165 40.484 93.8451 40.1293 94.0038 39.6627C94.1718 39.1867 94.2558 38.608 94.2558 37.9267C94.2558 37.236 94.1718 36.6573 94.0038 36.1907C93.8451 35.724 93.6165 35.374 93.3178 35.1407C93.0191 34.898 92.6598 34.7767 92.2398 34.7767C91.8385 34.7767 91.4838 34.8933 91.1758 35.1267C90.8771 35.36 90.6485 35.71 90.4898 36.1767C90.3311 36.6433 90.2518 37.222 90.2518 37.9127C90.2518 38.6033 90.3311 39.182 90.4898 39.6487C90.6485 40.1153 90.8771 40.47 91.1758 40.7127C91.4838 40.9553 91.8431 41.0767 92.2538 41.0767ZM101.592 43.0227C100.799 43.0227 100.08 42.808 99.436 42.3787C98.792 41.9493 98.2833 41.352 97.91 40.5867C97.546 39.812 97.364 38.9207 97.364 37.9127C97.364 36.8953 97.546 36.0087 97.91 35.2527C98.274 34.4873 98.7733 33.8947 99.408 33.4747C100.043 33.0453 100.761 32.8307 101.564 32.8307C102.376 32.8307 103.099 33.0453 103.734 33.4747C104.369 33.8947 104.868 34.4873 105.232 35.2527C105.605 36.018 105.792 36.9093 105.792 37.9267C105.792 38.944 105.605 39.8353 105.232 40.6007C104.868 41.366 104.369 41.9633 103.734 42.3927C103.109 42.8127 102.395 43.0227 101.592 43.0227ZM101.578 41.0767C101.989 41.0767 102.343 40.96 102.642 40.7267C102.941 40.484 103.169 40.1293 103.328 39.6627C103.496 39.1867 103.58 38.608 103.58 37.9267C103.58 37.236 103.496 36.6573 103.328 36.1907C103.169 35.724 102.941 35.374 102.642 35.1407C102.343 34.898 101.984 34.7767 101.564 34.7767C101.163 34.7767 100.808 34.8933 100.5 35.1267C100.201 35.36 99.9727 35.71 99.814 36.1767C99.6553 36.6433 99.576 37.222 99.576 37.9127C99.576 38.6033 99.6553 39.182 99.814 39.6487C99.9727 40.1153 100.201 40.47 100.5 40.7127C100.808 40.9553 101.167 41.0767 101.578 41.0767Z" fill="white"/>
<g opacity="0.11">
<mask id="mask0_102_591" style="mask-type:alpha" maskUnits="userSpaceOnUse" x="0" y="18" width="84" height="37">
<path d="M0 36.8687C0 26.9275 8.05888 18.8687 18 18.8687H83.5L77 54.8687H18C8.05888 54.8687 0 46.8098 0 36.8687Z" fill="#29B080"/>
</mask>
<g mask="url(#mask0_102_591)">
<rect width="3.59489" height="47.7055" transform="matrix(0.994161 0.107909 -0.23208 0.972697 16.0723 14.729)" fill="url(#paint0_linear_102_591)"/>
<rect width="6.59919" height="47.7055" transform="matrix(0.994161 0.107909 -0.23208 0.972697 22.7246 14.4165)" fill="url(#paint1_linear_102_591)"/>
<rect width="4.41727" height="47.7055" transform="matrix(0.994161 0.107909 -0.23208 0.972697 31.5996 14)" fill="url(#paint2_linear_102_591)"/>
<rect x="65.1338" y="11.5644" width="9.72838" height="47" transform="rotate(12.0976 65.1338 11.5644)" fill="url(#paint3_linear_102_591)"/>
<rect x="60.1342" y="11.6541" width="3.00008" height="47" transform="rotate(12.0976 60.1342 11.6541)" fill="url(#paint4_linear_102_591)"/>
</g>
</g>
<path fill-rule="evenodd" clip-rule="evenodd" d="M142.057 4.61135L142.073 4.62059L142.146 4.66378C142.213 4.70339 142.317 4.76405 142.454 4.84277C142.728 5.00031 143.132 5.22946 143.64 5.50631C144.658 6.06185 146.074 6.80008 147.665 7.53449C149.376 8.32396 151.1 9.0178 152.666 9.51193V1.94321L159.988 6.73729L163.958 1.06615L167.927 6.73729L175.249 1.94321V9.51193C176.815 9.0178 178.54 8.32396 180.25 7.53449C181.841 6.80008 183.257 6.06185 184.275 5.50631C184.783 5.22946 185.188 5.00031 185.461 4.84277C185.598 4.76406 185.702 4.70339 185.769 4.66378L185.842 4.62059L185.858 4.61158L191.916 0.976562V10.6862C191.914 11.6132 191.754 12.5288 191.448 13.395L192.03 13.5406L190.67 17.6355L188.871 17.0378C188.871 17.038 188.871 17.0377 188.871 17.0378C190.67 17.6365 190.669 17.6394 190.668 17.6419L190.666 17.6484L190.662 17.6617L190.652 17.6893C190.646 17.708 190.639 17.7276 190.631 17.748C190.616 17.7888 190.6 17.8328 190.581 17.8798C190.544 17.9738 190.499 18.0799 190.444 18.1963C190.335 18.4291 190.188 18.7038 189.993 19.0047C189.6 19.6107 189.02 20.3096 188.183 20.9754C187.481 21.5337 186.647 22.0311 185.666 22.4332V33.6235C185.666 33.6239 185.666 33.6243 185.666 33.6247C185.667 37.95 184.538 42.2006 182.39 45.9553C180.243 49.7103 177.151 52.8389 173.422 55.0312L173.419 55.0331L169.22 57.4963L169.211 57.5019L163.861 60.6597L153.585 54.0133C150.106 51.7601 147.247 48.6723 145.267 45.0311L148.781 43.1203C150.442 46.1751 152.841 48.7656 155.76 50.6559L163.958 55.958L167.187 54.0517L171.395 51.583C174.523 49.7439 177.117 47.1194 178.918 43.9694C180.72 40.8195 181.667 37.2534 181.666 33.6247V19.4997C181.197 19.4997 180.749 19.4892 180.302 19.4788C180.791 19.4598 181.245 19.4204 181.666 19.3645C181.81 19.3453 181.951 19.3242 182.088 19.3012C182.755 19.1894 183.332 19.0347 183.831 18.8544C184.626 18.567 185.222 18.2144 185.666 17.8663C186.022 17.5866 186.281 17.3097 186.464 17.0719C186.59 16.9088 186.681 16.764 186.745 16.6492C186.84 16.4789 186.874 16.3747 186.874 16.3747L182.708 15.333L185.614 14.4059C186.25 14.0851 186.793 13.6077 187.192 13.02C187.226 12.9696 187.26 12.9185 187.292 12.8665C187.381 12.721 187.462 12.5706 187.533 12.4162C187.783 11.8724 187.914 11.2793 187.916 10.6767V8.04133C187.916 8.04133 186.28 9.02284 183.916 10.2079C182.796 10.7691 181.514 11.3759 180.164 11.9457C178.566 12.6204 176.875 13.2432 175.249 13.6773C174.656 13.8358 174.071 13.969 173.503 14.0705C172.713 14.2117 171.955 14.2913 171.249 14.2913L171.249 9.34341L166.874 12.208L163.958 8.04133L161.041 12.208L156.666 9.34341V14.2913C155.961 14.2913 155.202 14.2117 154.412 14.0705C153.844 13.969 153.259 13.8358 152.666 13.6773C151.04 13.2432 149.349 12.6204 147.751 11.9457C146.401 11.3759 145.119 10.7691 143.999 10.2079C141.635 9.02284 139.999 8.04133 139.999 8.04133V10.6767C140.001 11.2793 140.132 11.8724 140.382 12.4162C140.453 12.5706 140.534 12.721 140.623 12.8665C140.656 12.9185 140.689 12.9696 140.723 13.02C141.122 13.6077 141.665 14.0851 142.301 14.4059L145.208 15.333L141.041 16.3747C141.041 16.3747 141.076 16.4789 141.17 16.6492C141.234 16.764 141.325 16.9088 141.451 17.0719C141.635 17.3097 141.893 17.5866 142.249 17.8663C142.693 18.2144 143.289 18.567 144.084 18.8544C144.583 19.0347 145.16 19.1894 145.827 19.3012C145.964 19.3242 146.105 19.3453 146.249 19.3645C146.67 19.4204 147.124 19.4598 147.614 19.4788C147.166 19.4892 146.718 19.4997 146.249 19.4997V33.1663C146.249 36.6436 147.12 40.0655 148.781 43.1203L145.267 45.0311C143.287 41.39 142.249 37.3112 142.249 33.1665V22.4332C141.268 22.0311 140.434 21.5337 139.732 20.9754C138.895 20.3096 138.315 19.6107 137.922 19.0047C137.727 18.7038 137.58 18.4291 137.471 18.1963C137.416 18.0799 137.371 17.9738 137.334 17.8798C137.315 17.8328 137.299 17.7888 137.284 17.748C137.277 17.7276 137.27 17.708 137.263 17.6893L137.254 17.6617L137.249 17.6484L137.247 17.6419C137.246 17.6394 137.245 17.6369 139.045 17.0382C139.044 17.0381 139.045 17.0383 139.045 17.0382L137.245 17.6355L135.885 13.5406L136.467 13.395C136.161 12.5288 136.001 11.6132 135.999 10.6862L135.999 10.6767L135.999 0.976563L142.057 4.61135ZM147.614 19.4788C147.614 19.4788 147.614 19.4788 147.614 19.4788V19.4788Z" fill="#363C3F"/>
<path d="M156.708 14.2917V18.1979C153.759 19.0128 150.716 19.4434 147.656 19.4792C142.042 19.2604 141.083 16.375 141.083 16.375L145.25 15.3333L142.344 14.4062C141.653 14.0579 141.072 13.5251 140.666 12.8669C140.26 12.2086 140.044 11.4506 140.042 10.6771V8.04166C140.042 8.04166 150.458 14.2917 156.708 14.2917Z" fill="#FF8F75"/>
<path d="M186.917 16.375C186.917 16.375 185.958 19.2604 180.344 19.4792C177.284 19.4434 174.241 19.0128 171.292 18.1979V14.2917C177.542 14.2917 187.958 8.04166 187.958 8.04166V10.6771C187.957 11.4506 187.74 12.2086 187.334 12.8669C186.928 13.5251 186.347 14.0579 185.656 14.4062L182.75 15.3333L186.917 16.375Z" fill="#FF8F75"/>
<path d="M171.292 14.2917V18.1979C165.896 16.6667 164 14.2917 164 14.2917C164 14.2917 162.104 16.6667 156.708 18.1979V9.34374L161.083 12.2083L164 8.04166L166.917 12.2083L171.292 9.34374V14.2917Z" fill="#FFDC56"/>
<path d="M165.229 51.0312L164 51.7917L162.802 50.9792L157.74 47.5521C155.478 45.9895 153.633 43.8983 152.364 41.4602C151.095 39.0221 150.441 36.311 150.458 33.5625V22.625C153.795 22.7199 157.117 22.1461 160.229 20.9375L164 24.7083L167.771 20.9375C170.883 22.1461 174.205 22.7199 177.542 22.625V33.9271C177.564 36.7921 176.854 39.6153 175.48 42.1291C174.105 44.6429 172.111 46.7641 169.688 48.2917L165.229 51.0312Z" fill="#E9E9FF"/>
<path d="M180.344 19.4792C180.792 19.4896 181.24 19.5 181.708 19.5V33.625C181.709 37.2537 180.762 40.8198 178.961 43.9697C177.159 47.1197 174.566 49.7443 171.438 51.5833L167.229 54.0521L167.125 53.875L165.229 51.0312L169.688 48.2917C172.111 46.7641 174.105 44.6429 175.48 42.1291C176.854 39.6153 177.564 36.7921 177.542 33.9271V22.625C174.205 22.7199 170.883 22.1461 167.771 20.9375C166.334 20.4248 165.04 19.5746 164 18.4583C162.96 19.5746 161.666 20.4248 160.229 20.9375C157.117 22.1461 153.795 22.7199 150.458 22.625V33.5625C150.441 36.311 151.095 39.0221 152.364 41.4602C153.633 43.8983 155.478 45.9895 157.74 47.5521L162.802 50.9792L160.875 53.875L160.844 53.9167L155.802 50.6562C152.884 48.766 150.484 46.1754 148.823 43.1206C147.162 40.0658 146.292 36.6439 146.292 33.1667V19.5C146.76 19.5 147.208 19.4896 147.656 19.4792C150.716 19.4434 153.759 19.0128 156.708 18.1979C162.104 16.6667 164 14.2917 164 14.2917C164 14.2917 165.896 16.6667 171.292 18.1979C174.241 19.0128 177.284 19.4434 180.344 19.4792Z" fill="#215A80"/>
<path d="M164 14.2916C164 14.2916 165.896 16.6666 171.292 18.1979V16.1146C165.896 14.5833 164 12.2083 164 12.2083C164 12.2083 162.104 14.5833 156.708 16.1146V18.1979C162.104 16.6666 164 14.2916 164 14.2916Z" fill="#FFB337"/>
<path d="M177.542 21.0625C174.413 21.151 171.298 20.62 168.375 19.5C167.199 19.0729 166.13 18.3951 165.243 17.5135C165.097 17.3278 164.912 17.1773 164.701 17.073C164.489 16.9688 164.257 16.9136 164.021 16.9114C163.784 16.9134 163.55 16.9664 163.336 17.0669C163.121 17.1674 162.931 17.313 162.778 17.4937C161.888 18.387 160.811 19.0722 159.625 19.5C156.702 20.6197 153.587 21.1508 150.458 21.0625C150.044 21.0625 149.647 21.2271 149.354 21.5201C149.06 21.8131 148.896 22.2106 148.896 22.625V33.5625C148.872 36.5675 149.586 39.5325 150.975 42.1972C152.364 44.862 154.386 47.145 156.864 48.8458L163.123 53.0844C163.373 53.2538 163.666 53.3473 163.968 53.3536C164.269 53.3598 164.566 53.2786 164.823 53.1198L170.505 49.6229C173.152 47.9507 175.33 45.6327 176.834 42.8869C178.339 40.1412 179.12 37.0579 179.104 33.9271V22.625C179.104 22.2106 178.94 21.8131 178.647 21.5201C178.354 21.2271 177.956 21.0625 177.542 21.0625ZM177.542 33.9271C177.564 36.792 176.854 39.6152 175.48 42.1291C174.105 44.6429 172.111 46.7641 169.688 48.2916L165.229 51.0312L164 51.7916L162.802 50.9791L157.74 47.5521C155.478 45.9895 153.633 43.8983 152.364 41.4602C151.095 39.0221 150.441 36.311 150.458 33.5625V22.625C153.795 22.7199 157.117 22.1461 160.229 20.9375C161.666 20.4248 162.96 19.5746 164 18.4583C165.04 19.5746 166.334 20.4248 167.771 20.9375C170.883 22.1461 174.205 22.7199 177.542 22.625V33.9271Z" fill="#269580"/>
<path d="M164 18.4583C162.96 19.5746 161.666 20.4248 160.229 20.9375C157.117 22.1461 153.795 22.7199 150.458 22.625V33.5625C150.441 36.311 151.095 39.0221 152.364 41.4602C153.633 43.8983 155.478 45.9895 157.74 47.5521L162.802 50.9791L164 51.7916L165.229 51.0312L169.688 48.2916C172.111 46.7641 174.105 44.6429 175.48 42.1291C176.854 39.6152 177.564 36.792 177.542 33.9271V22.625C174.205 22.7199 170.883 22.1461 167.771 20.9375C166.334 20.4248 165.04 19.5746 164 18.4583ZM175.979 33.9271C175.997 36.524 175.353 39.0826 174.109 41.3624C172.866 43.6422 171.063 45.5682 168.87 46.9594L164.411 49.6989L164.044 49.9271L158.621 46.2552C156.566 44.8411 154.89 42.9444 153.739 40.7314C152.588 38.5183 151.998 36.0567 152.021 33.5625V24.1562C155.039 24.0943 158.022 23.4946 160.83 22.3854C161.961 21.9256 163.027 21.3198 164 20.5833C164.971 21.3172 166.035 21.9203 167.164 22.3771C169.973 23.49 172.958 24.0925 175.979 24.1562V33.9271Z" fill="#C9D1F6"/>
<path d="M167.229 54.0521L164 55.9583L160.844 53.9167L160.875 53.875L162.802 50.9792L164 51.7917L165.229 51.0312L167.125 53.875L167.229 54.0521Z" fill="#FFDC56"/>
<path d="M167.771 20.9375L164 24.7083L160.229 20.9375C161.666 20.4248 162.96 19.5746 164 18.4583C165.04 19.5746 166.334 20.4248 167.771 20.9375Z" fill="#FFDC56"/>
<path d="M166.369 20.2562C165.477 19.8054 164.674 19.1962 164 18.4583C163.326 19.1962 162.523 19.8054 161.631 20.2562L164 22.625L166.369 20.2562Z" fill="#FF8F75"/>
<path d="M161.408 22.1167C161.218 22.2042 161.038 22.2938 160.83 22.3802C158.556 23.2878 156.156 23.8425 153.714 24.025C154.236 28.9132 156.317 33.5037 159.65 37.118C162.982 40.7323 167.389 43.1788 172.219 44.0958C174.649 41.2656 175.983 37.6575 175.979 33.9271V24.1563C172.958 24.0925 169.973 23.49 167.164 22.3771C166.955 22.2917 166.78 22.2031 166.592 22.1167L164 24.7083L161.408 22.1167Z" fill="white"/>
<path d="M166.243 52.551L165.229 51.0312L164 51.7917L162.802 50.9792L161.816 52.4614L164 53.875L166.243 52.551Z" fill="#FF8F75"/>
<path d="M187.958 10.6771V8.04166C187.958 8.04166 177.542 14.2917 171.292 14.2917V18.1979C172.339 18.4996 173.401 18.743 174.475 18.9271C174.61 17.9328 175.101 17.0211 175.856 16.3605C176.611 15.6999 177.58 15.335 178.583 15.3333H182.75L185.656 14.4062C186.347 14.0579 186.928 13.5251 187.334 12.8669C187.74 12.2086 187.957 11.4506 187.958 10.6771Z" fill="#FFAB6F"/>
<path d="M140.042 10.6771V8.04166C140.042 8.04166 150.458 14.2917 156.708 14.2917V18.1979C155.662 18.4996 154.599 18.743 153.525 18.9271C153.39 17.9328 152.899 17.0211 152.144 16.3605C151.389 15.6999 150.42 15.335 149.417 15.3333H145.25L142.344 14.4062C141.653 14.0579 141.072 13.5251 140.666 12.8669C140.26 12.2086 140.044 11.4506 140.042 10.6771Z" fill="#FFAB6F"/>
<path d="M169.723 14.8321C170.059 14.4963 169.952 13.8457 169.485 13.3789C169.017 12.912 168.367 12.8058 168.031 13.1415C167.696 13.4772 167.803 14.1278 168.27 14.5946C168.737 15.0615 169.388 15.1678 169.723 14.8321Z" fill="#EAF6FF"/>
<path d="M157.223 38.7904C157.558 38.4547 157.452 37.8041 156.984 37.3372C156.517 36.8704 155.867 36.7641 155.531 37.0998C155.196 37.4355 155.302 38.0862 155.77 38.553C156.237 39.0198 156.887 39.1261 157.223 38.7904Z" fill="white"/>
<path d="M159.659 13.8897C159.827 13.7217 159.774 13.3962 159.54 13.1628C159.306 12.9294 158.981 12.8764 158.813 13.0444C158.645 13.2125 158.698 13.538 158.932 13.7714C159.165 14.0048 159.491 14.0578 159.659 13.8897Z" fill="#EAF6FF"/>
<path d="M161.189 42.7397C161.857 42.0715 161.644 40.7762 160.714 39.8466C159.784 38.917 158.488 38.7051 157.821 39.3733C157.153 40.0415 157.366 41.3368 158.296 42.2664C159.226 43.196 160.522 43.4079 161.189 42.7397Z" fill="white"/>
<path d="M158.378 36.59L162.554 28.292H165.632L161.366 36.59H158.378ZM158.378 38.174V36.59L159.314 35.78H168.566V38.174H158.378ZM164.372 41V33.134H167.144V41H164.372Z" fill="#363C3F"/>
<defs>
<linearGradient id="paint0_linear_102_591" x1="1.79745" y1="0" x2="1.79745" y2="47.7055" gradientUnits="userSpaceOnUse">
<stop stop-color="white"/>
<stop offset="1" stop-color="white" stop-opacity="0"/>
</linearGradient>
<linearGradient id="paint1_linear_102_591" x1="3.2996" y1="0" x2="3.2996" y2="47.7055" gradientUnits="userSpaceOnUse">
<stop stop-color="white"/>
<stop offset="1" stop-color="white" stop-opacity="0"/>
</linearGradient>
<linearGradient id="paint2_linear_102_591" x1="2.20863" y1="0" x2="2.20863" y2="47.7055" gradientUnits="userSpaceOnUse">
<stop stop-color="white"/>
<stop offset="1" stop-color="white" stop-opacity="0"/>
</linearGradient>
<linearGradient id="paint3_linear_102_591" x1="69.998" y1="11.5644" x2="69.998" y2="58.5644" gradientUnits="userSpaceOnUse">
<stop stop-color="white"/>
<stop offset="1" stop-color="white" stop-opacity="0"/>
</linearGradient>
<linearGradient id="paint4_linear_102_591" x1="61.6342" y1="11.6541" x2="61.6342" y2="58.6541" gradientUnits="userSpaceOnUse">
<stop stop-color="white"/>
<stop offset="1" stop-color="white" stop-opacity="0"/>
</linearGradient>
</defs>
</svg>
