<svg width="18" height="18" viewBox="0 0 18 18" fill="none" xmlns="http://www.w3.org/2000/svg">
<g filter="url(#filter0_i_1_1171)">
<circle cx="9" cy="9" r="9" fill="white"/>
</g>
<circle cx="9" cy="9" r="8.5" stroke="url(#paint0_linear_1_1171)"/>
<path d="M4.01454 9.66232C4.63553 10.1026 4.87074 10.1649 5.38823 10.8365C6.23973 11.9261 6.11271 12.3798 6.36675 12.5888C6.61608 12.7978 7.76866 12.9624 8.5543 12.0151C9.33994 11.0633 10.5678 8.43924 12.1391 6.86481C13.7103 5.29038 14.4442 4.83228 14.9147 4.59656C15.3851 4.35639 13.8891 4.40976 10.9536 6.61575C8.91184 8.15015 7.46288 10.2716 7.46288 10.2716C7.46288 10.2716 7.0583 9.11082 6.14564 8.33695C5.23299 7.56752 2.98428 8.92403 4.01454 9.66232Z" fill="url(#paint1_linear_1_1171)"/>
<defs>
<filter id="filter0_i_1_1171" x="0" y="0" width="18" height="18" filterUnits="userSpaceOnUse" color-interpolation-filters="sRGB">
<feFlood flood-opacity="0" result="BackgroundImageFix"/>
<feBlend mode="normal" in="SourceGraphic" in2="BackgroundImageFix" result="shape"/>
<feColorMatrix in="SourceAlpha" type="matrix" values="0 0 0 0 0 0 0 0 0 0 0 0 0 0 0 0 0 0 127 0" result="hardAlpha"/>
<feOffset dy="-4"/>
<feComposite in2="hardAlpha" operator="arithmetic" k2="-1" k3="1"/>
<feColorMatrix type="matrix" values="0 0 0 0 0.804167 0 0 0 0 0.804167 0 0 0 0 0.804167 0 0 0 0.25 0"/>
<feBlend mode="normal" in2="shape" result="effect1_innerShadow_1_1171"/>
</filter>
<linearGradient id="paint0_linear_1_1171" x1="9" y1="0" x2="9" y2="15.75" gradientUnits="userSpaceOnUse">
<stop stop-color="white"/>
<stop offset="1" stop-color="white" stop-opacity="0"/>
</linearGradient>
<linearGradient id="paint1_linear_1_1171" x1="4.67045" y1="4.88859" x2="7.74712" y2="13.9831" gradientUnits="userSpaceOnUse">
<stop stop-color="#29B080"/>
<stop offset="1" stop-color="#204782"/>
</linearGradient>
</defs>
</svg>
