<svg width="38" height="44" viewBox="0 0 38 44" fill="none" xmlns="http://www.w3.org/2000/svg">
<path d="M32.916 17.9876C32.916 17.9876 29.7665 17.9855 27.4939 18.1C27.4939 18.1 23.7355 18.6753 19.9818 20.1966C19.9818 20.1966 19.6557 22.8211 17.173 23.6591L16.4037 21.7975C16.4037 21.7975 14.1073 21.9185 11.372 22.2118C11.372 22.2118 6.96358 24.144 4.88033 25.4096L6.91219 27.4864L29.2891 22.2901L32.916 17.9876Z" fill="url(#paint0_linear_1_1258)"/>
<g style="mix-blend-mode:soft-light">
<path d="M8.01772 24.9032C7.85116 24.9491 5.50555 25.263 5.35378 25.1768C5.23237 25.1079 10.0297 22.9148 11.0159 22.5917C11.9069 22.2949 14.6357 21.9778 15.1509 21.9894C15.3847 22.0017 8.67081 24.6719 8.01772 24.9032Z" fill="#B6D3FF"/>
</g>
<g style="mix-blend-mode:multiply" opacity="0.5">
<path d="M12.025 22.7231C12.5591 22.5246 13.7167 22.3591 10.9755 23.6525C9.07527 24.5604 6.96179 25.0662 6.73209 24.9759C6.3703 24.8709 10.5071 23.3464 12.025 22.7231Z" fill="#D42F55"/>
</g>
<g style="mix-blend-mode:multiply" opacity="0.5">
<path d="M28.5309 18.147C29.5458 18.0208 30.0914 18.0496 29.7476 18.1956C29.4342 18.3588 23.7657 19.4351 23.7001 19.1972C23.6345 18.9592 27.2888 18.2846 28.5309 18.147Z" fill="#D42F55"/>
</g>
<path d="M9.32533 25.746L5.3192 25.98C5.3192 25.98 10.5173 36.4772 12.1276 37.9534C13.7141 39.4362 19.1263 39.6594 19.6522 39.6168C21.1282 39.4915 25.4026 39.2091 25.4026 39.2091L21.0013 27.2377L9.32533 25.746Z" fill="url(#paint1_linear_1_1258)"/>
<g style="mix-blend-mode:multiply" opacity="0.5">
<path d="M15.2462 36.9144C15.3446 37.2713 12.0251 37.6744 11.7126 37.3766C11.4304 37.0959 7.15558 29.3907 7.16959 28.9772C7.17704 28.5399 10.2208 28.6225 10.434 29.0245C10.6473 29.4265 15.1478 36.5575 15.2462 36.9144Z" fill="#D42F55"/>
</g>
<path d="M9.32533 25.7459L15.7653 22.6392C17.5214 25.2017 20.9303 25.0299 20.9303 25.0299L21.6203 24.8397C21.6203 24.8397 24.6397 23.1624 24.7501 20.0342L32.0167 19.1829C32.3373 20.0673 33.1913 31.4295 32.5733 32.6239C31.966 33.7642 26.516 38.6973 25.474 39.1894C25.4581 39.1938 25.4423 39.1982 25.4264 39.2025C25.4105 39.2069 25.4026 39.2091 25.4026 39.2091C24.2556 39.3205 17.0608 37.9246 15.9312 37.2632C14.795 36.578 9.52701 26.6632 9.32533 25.7459Z" fill="url(#paint2_linear_1_1258)"/>
<path d="M31.0251 32.4874C30.5246 33.0862 25.9673 37.5428 24.7062 37.8905C24.0876 38.061 17.3432 36.7202 16.3555 35.738C15.3441 34.7624 12.5835 29.0206 12.6934 28.8623C12.8206 28.6736 30.5983 23.6957 30.9756 23.9501C31.3899 24.2455 31.3337 32.1207 31.0251 32.4874Z" fill="url(#paint3_linear_1_1258)"/>
<g style="mix-blend-mode:multiply" opacity="0.3">
<path d="M29.7848 31.7029C29.5196 32.8769 16.195 34.0414 15.6224 33.636C15.0802 33.2479 13.3988 30.3064 13.7607 29.669C14.1226 29.0316 27.5612 22.8945 28.9279 23.9514C30.2945 25.0083 30.0007 30.7217 29.7848 31.7029Z" fill="#D42F55"/>
</g>
<path d="M30.1448 32.7301C29.6787 33.2682 25.8041 37.2294 24.0286 37.8469C24.2083 37.8486 24.5873 37.9233 24.7063 37.8905C25.9673 37.5429 30.5246 33.0862 31.0252 32.4874C31.3337 32.1207 31.3899 24.2455 30.9756 23.9501C30.6893 23.7474 20.9579 26.4303 15.8317 27.8948C21.1007 26.391 29.8393 24.0074 30.1018 24.2166C30.5096 24.4883 30.4533 32.3634 30.1448 32.7301Z" fill="url(#paint4_linear_1_1258)"/>
<g style="mix-blend-mode:multiply" opacity="0.8">
<path d="M19.3708 39.6175C18.3069 38.4515 16.7868 37.4881 16.0254 37.698C15.2878 37.9014 13.793 38.2367 12.957 38.0831C12.1276 37.9534 8.62293 31.6487 8.60737 31.4994C8.5918 31.3501 11.7774 31.8543 12.1843 31.8446C12.3164 31.8593 13.9524 31.6643 13.9524 31.6643L14.2353 32.2264C14.2353 32.2264 16.5088 31.6508 16.6622 31.5573C16.915 31.3596 16.9662 28.7597 21.3582 27.1393C24.2667 26.0814 27.7088 28.5374 27.7088 28.5374C27.7088 28.5374 29.5138 28.3982 30.3827 27.9283C30.5123 27.8413 31.1828 26.8372 31.2952 26.7807C32.2174 26.2875 32.6785 26.0409 32.6785 26.0409L32.5795 24.6601C32.5795 24.6601 25.816 24.2718 21.4339 25.5567C17.0584 26.8654 7.54347 30.3334 7.54347 30.3334C7.54347 30.3334 10.9193 37.0064 12.2014 38.0354C13.4836 39.0644 14.7954 39.0868 16.4198 39.407C18.0507 39.751 19.3708 39.6175 19.3708 39.6175Z" fill="#D42F55"/>
</g>
<path d="M28.664 27.1733L27.3366 27.0016C27.3366 27.0016 25.6869 26.1251 23.2633 26.4348C19.4787 26.915 17.3567 29.0617 17.3567 29.0617C17.3567 29.0617 18.5895 25.5472 23.2413 25.5193C27.9407 25.4782 28.664 27.1733 28.664 27.1733Z" fill="url(#paint5_linear_1_1258)"/>
<path d="M16.4037 21.7975C19.2952 24.7638 21.161 23.9166 21.161 23.9166C21.161 23.9166 23.208 23.6339 24.0799 19.5533C24.0799 19.5533 29.0313 18.2906 32.9161 17.9877L33.5245 25.1164C33.5245 25.1164 30.4657 26.6509 28.664 27.1732C28.664 27.1732 26.126 25.2104 21.9039 26.4256C17.7056 27.6342 16.6271 30.5941 16.6271 30.5941C14.8492 31.1099 11.5379 31.3571 11.5379 31.3571L8.31056 25.1296C11.6155 23.3736 16.4037 21.7975 16.4037 21.7975Z" fill="url(#paint6_linear_1_1258)"/>
<path d="M4.88035 25.4097L8.31057 25.1296L11.5379 31.3571C11.5379 31.3571 8.55657 31.1294 6.90595 30.714L4.88035 25.4097Z" fill="url(#paint7_linear_1_1258)"/>
<path d="M7.86517 24.5356C7.86517 24.5356 10.9976 23.8256 12.3605 22.733C12.3605 22.733 11.6586 20.1871 11.7181 17.4313C11.7711 14.6518 12.5854 11.6623 15.6047 10.7275C17.4885 10.1313 19.0423 10.7526 20.2899 11.8424C20.2899 11.8424 20.2921 11.8503 20.2965 11.8662C22.9699 14.2269 24.2145 18.9273 24.2145 18.9273C25.8644 19.0613 28.7819 18.1289 28.7819 18.1289C28.7819 18.1289 28.7221 17.6334 28.5401 16.7875C28.0736 14.8168 26.8748 11.0254 23.8808 7.7802C19.1215 2.58948 13.7763 3.90951 13.7763 3.90951C13.7763 3.90951 8.54086 5.8137 7.01949 13.0176C6.79945 14.0767 6.67458 15.1096 6.60141 16.0514C6.30774 21.0223 7.86517 24.5356 7.86517 24.5356Z" fill="url(#paint8_radial_1_1258)"/>
<path d="M26.0719 35.4148L23.9763 31.4355C24.4424 30.8973 24.8708 30.0368 24.5715 29.044C24.1697 27.7723 22.917 27.2216 21.3163 27.6373C21.2687 27.6504 21.237 27.6592 21.2211 27.6636C21.2053 27.6679 21.1735 27.6767 21.1259 27.6898C20.8339 27.7447 20.2456 27.9325 19.7336 28.3041C18.9689 28.8733 18.6357 29.7076 18.8373 30.6249C19.0849 31.7087 19.9717 32.2323 20.6887 32.4186C20.6887 32.4186 21.4108 36.8022 21.5322 36.8712C21.8292 37.0197 26.0719 35.4148 26.0719 35.4148Z" fill="url(#paint9_linear_1_1258)"/>
<path d="M26.0718 35.4148C26.0718 35.4148 24.608 31.3125 24.6121 31.2345C24.64 31.15 25.4894 29.8662 25.1663 28.88C24.7645 27.6083 23.5184 27.0814 21.9349 27.4667C21.9032 27.4755 21.8714 27.4842 21.8397 27.493C21.8239 27.4974 21.8001 27.5039 21.7683 27.5127C21.459 27.5979 20.8945 27.7792 20.4063 28.1442C19.6416 28.7134 19.3256 29.5174 19.5511 30.4281C19.7987 31.5119 20.6551 32.0182 21.3722 32.2046C21.3722 32.2046 22.2436 36.5726 22.2805 36.6136C22.3412 36.6481 26.0095 35.56 26.0718 35.4148Z" fill="url(#paint10_linear_1_1258)"/>
<path d="M20.2173 30.2443C19.8188 28.6133 22.0472 28.1525 22.0472 28.1525C22.0472 28.1525 23.9817 27.9264 24.418 29.1374C24.8281 30.2533 23.8082 30.9185 23.8278 30.9898C23.8606 31.1088 25.1801 34.6877 25.1547 34.8739C25.1399 35.006 22.8016 35.625 22.7581 35.5602C22.6539 35.4609 21.9876 31.6508 21.9613 31.5556C21.9351 31.4605 20.5215 31.4405 20.2173 30.2443Z" fill="url(#paint11_linear_1_1258)"/>
<g style="mix-blend-mode:multiply" opacity="0.5">
<path d="M21.6082 28.3248C22.9817 27.9205 23.6231 28.947 23.7288 29.6091C23.8345 30.2712 23.2937 31.1883 22.2206 31.3818C21.0999 31.5883 20.3378 30.7743 20.2501 30.3633C20.1862 29.9457 20.0272 28.8118 21.6082 28.3248Z" fill="#D42F55"/>
</g>
<g style="mix-blend-mode:multiply" opacity="0.5">
<path d="M22.2255 31.5852C22.4807 31.4893 23.0959 31.6781 23.3116 32.1819C23.5511 32.6791 24.5312 34.841 24.445 34.9928C24.335 35.1511 22.8336 35.4626 22.7943 35.3199C22.7549 35.1771 21.8341 31.7443 22.2255 31.5852Z" fill="#D42F55"/>
</g>
<g style="mix-blend-mode:multiply" opacity="0.8">
<path d="M21.3722 32.2045L20.6887 32.4185C20.6887 32.4185 19.2826 31.9613 19.0358 31.1589C18.789 30.3565 19.2197 30.3402 19.4108 30.5691C19.6085 30.8218 19.6675 31.036 20.1646 31.539C20.7724 32.165 21.3722 32.2045 21.3722 32.2045Z" fill="#D42F55"/>
</g>
<g style="mix-blend-mode:multiply" opacity="0.8">
<path d="M26.0718 35.4148C25.6099 35.875 24.1445 36.6886 23.8114 36.7804C23.4545 36.8788 21.5322 36.8711 21.5322 36.8711L22.2805 36.6136L26.0718 35.4148Z" fill="#D42F55"/>
</g>
<g style="mix-blend-mode:multiply" opacity="0.5">
<path d="M25.1827 29.3107C25.231 29.579 24.624 29.2343 24.5132 29.1112C24.0875 28.5886 23.8759 28.0068 22.2851 28.087C21.3047 28.1525 20.3455 28.8521 20.1133 29.4026C20.0164 29.6085 19.6251 29.7676 19.6029 29.5945C19.4923 28.7289 20.8093 27.4698 22.4436 27.4545C24.0303 27.4523 24.9753 27.9086 25.1827 29.3107Z" fill="#FFAB55"/>
</g>
<path d="M24.7464 28.0997C24.7464 28.0997 23.2043 26.2207 19.9756 28.1605C19.9756 28.1605 22.5971 26.6185 24.7464 28.0997Z" fill="#FFCC16"/>
<g style="mix-blend-mode:multiply" opacity="0.5">
<path d="M23.9371 19.5926C23.9905 19.3219 20.6349 19.9654 20.1336 20.2828C19.9326 20.3894 19.9126 21.803 18.096 23.1999C18.096 23.1999 20.2174 24.7656 21.8674 23.4146C23.282 22.231 23.7499 20.7707 23.9371 19.5926Z" fill="#D42F55"/>
</g>
<g style="mix-blend-mode:soft-light" opacity="0.3">
<path d="M11.392 30.2708C11.6677 30.5276 17.4429 28.9099 17.9221 28.4193C19.157 27.234 19.2327 25.6514 22.9928 24.8964C26.6577 24.1676 28.2041 25.2262 28.6503 25.3592C29.1204 25.4856 32.0872 24.3605 32.4671 23.9741C32.8709 23.5812 32.7558 19.5423 32.6813 18.4363C32.6543 18.0597 24.3916 19.5697 24.2307 20.1004C23.9221 21.2096 23.2046 23.9932 20.612 24.2471C18.5519 24.4822 16.9943 22.4539 16.4266 22.252C16.3659 22.2175 16.169 22.2462 15.8834 22.3249C15.9712 22.736 15.9399 23.1798 15.5486 23.3389C15.1096 23.5111 14.6346 23.1812 14.2918 22.8661C12.2742 23.6272 9.48296 24.8319 9.12851 25.0321C8.57304 25.3388 11.0992 30.0443 11.392 30.2708Z" fill="white"/>
</g>
<g style="mix-blend-mode:soft-light">
<path d="M32.477 18.9023C33.0388 20.1043 32.8216 23.774 32.4672 23.9742C32.1061 24.1505 24.4047 20.3598 25.1201 19.9833C25.8052 19.5896 32.2309 18.3813 32.477 18.9023Z" fill="white"/>
</g>
<g style="mix-blend-mode:multiply" opacity="0.2">
<path d="M16.8694 28.9656C17.1311 28.8934 16.9349 29.946 16.1849 30.3832C15.4588 30.8138 11.9645 31.4187 11.7037 31.0298C11.1148 30.1937 16.6552 29.0246 16.8694 28.9656Z" fill="#DA0553"/>
</g>
<g style="mix-blend-mode:screen" opacity="0.2">
<path d="M16.0254 37.698C15.9811 38.0942 14.4731 38.382 14.1441 38.3959C13.0357 38.3686 12.4016 37.6474 12.6461 37.6056C13.1934 37.4547 16.096 37.3969 16.0254 37.698Z" fill="#FFB311"/>
</g>
<path d="M32.5733 32.6238C30.8361 34.5876 26.1263 38.6767 25.3542 38.9407C24.5994 39.1744 18.2444 39.3392 16.1614 39.1198C14.1022 38.8938 12.8823 38.4621 12.8823 38.4621C12.8823 38.4621 15.2277 39.6332 19.3708 39.6175C23.5443 39.6189 25.1236 39.3115 25.4026 39.209C26.324 38.9294 27.7944 37.5768 29.785 35.6967C31.7822 33.8404 32.5733 32.6238 32.5733 32.6238Z" fill="#E1332C"/>
<path d="M12.1843 31.8445C14.5451 34.6499 15.9312 37.2632 15.9312 37.2632C15.9312 37.2632 15.0633 36.5296 13.6738 34.2757C12.1909 31.8683 12.1843 31.8445 12.1843 31.8445Z" fill="#FFE016"/>
<path d="M31.0252 32.4875C29.2125 34.5489 25.4718 37.6027 24.8252 37.8578C24.1787 38.1128 17.2373 36.8007 16.4909 36.136C15.7509 35.4952 15.2384 34.1004 15.2384 34.1004C15.2384 34.1004 15.3876 34.8273 16.8995 35.9466C18.4113 37.0659 23.8982 37.6525 24.7547 37.4164C26.0634 37.0556 31.0252 32.4875 31.0252 32.4875Z" fill="#FFE016"/>
<g style="mix-blend-mode:soft-light" opacity="0.3">
<path d="M8.15136 25.4807C8.60575 26.2003 11.1861 30.9165 10.944 31.06C10.7258 31.197 8.00957 29.7953 7.7225 29.3112C7.25909 28.4661 6.1733 25.642 6.37432 25.5354C6.57534 25.4288 7.91432 25.0852 8.15136 25.4807Z" fill="white"/>
</g>
<g style="mix-blend-mode:multiply" opacity="0.5">
<path d="M11.4821 31.5261C11.9768 31.9274 12.7297 33.3583 12.637 33.4863C12.5442 33.6142 10.8234 36.0088 10.3912 35.4623C9.95888 34.9158 7.77716 31.0882 7.91992 31.0489C8.08647 31.003 11.2196 31.3169 11.4821 31.5261Z" fill="#D42F55"/>
</g>
<path d="M12.847 23.2902C12.9232 23.4739 9.41961 26.1808 9.23338 26.1553C9.02991 26.1602 8.04473 25.2797 8.51159 25.023C8.77743 24.8729 12.847 23.2902 12.847 23.2902Z" fill="#FFE016"/>
<g style="mix-blend-mode:multiply" opacity="0.3">
<path d="M23.7706 19.6385C22.7263 19.2864 20.7415 20.1664 20.643 20.552C20.5511 20.9614 20.6712 23.7188 21.1536 23.6114C21.9995 23.4294 22.7725 22.7043 23.2829 21.7699C23.7999 20.8593 24.0544 19.7395 23.7706 19.6385Z" fill="#D42F55"/>
</g>
<path d="M11.0936 24.0808C11.4636 24.03 10.1163 25.2719 9.74629 25.3227C9.35904 25.4039 8.75854 25.083 8.94644 24.9288C9.13434 24.7746 10.8253 24.1292 11.0936 24.0808Z" fill="white"/>
<path d="M32.9161 17.9876C32.0996 18.648 24.6968 19.5624 24.0799 19.5533C24.0799 19.5533 28.0862 18.5768 30.2414 18.3154C32.3664 18.0368 32.9161 17.9876 32.9161 17.9876Z" fill="#FFE016"/>
<g style="mix-blend-mode:multiply" opacity="0.2">
<path d="M28.6116 26.9829C28.0118 26.9435 27.0242 25.9613 24.7123 25.933C21.5258 25.8898 18.4734 28.1906 18.5096 27.9503C18.6869 27.1077 21.3225 24.4098 25.363 24.8575C28.022 25.123 28.7674 26.9912 28.6116 26.9829Z" fill="#DA0553"/>
</g>
<path d="M27.7224 25.6151C27.7224 25.6151 26.6577 24.1677 24.1513 24.2699C21.6515 24.3958 20.1474 26.0905 20.1474 26.0905C20.1474 26.0905 24.0711 23.4215 27.7224 25.6151Z" fill="#FFE016"/>
<path d="M9.57935 27.596C9.9428 27.5214 11.2216 28.9097 11.2666 29.5374C11.3289 30.1346 11.1196 30.3971 10.9465 30.4193C10.7734 30.4414 9.96792 29.5626 9.72432 29.1433C9.46349 28.7544 9.28727 27.6509 9.57935 27.596Z" fill="#DC2C00"/>
<path d="M11.0682 29.0032C11.2666 29.5373 11.2706 30.2019 10.9351 30.192C10.5757 30.1886 10.0655 29.638 9.8982 29.4026C9.8982 29.4026 10.5634 30.4224 11.0548 30.4406C11.5463 30.4587 11.3815 29.5825 11.3052 29.3987C11.229 29.2149 11.0682 29.0032 11.0682 29.0032Z" fill="#FFE016"/>
<g style="mix-blend-mode:multiply" opacity="0.5">
<path d="M10.6359 28.4568C11.1576 29.2347 10.5266 29.639 10.1821 29.5036C9.84408 29.392 9.56357 28.9317 9.48652 28.4665C9.37913 27.9841 9.40793 27.4385 9.77216 27.6453C10.0995 27.8111 10.4383 28.2041 10.6359 28.4568Z" fill="#D42F55"/>
</g>
<path d="M15.7916 21.9918C15.9121 22.5218 16.0983 23.2898 15.4296 23.3717C14.7848 23.4471 14.0941 22.6134 14.0941 22.6134C14.0941 22.6134 14.1154 22.5052 14.7685 22.2739C15.4151 22.0189 15.7916 21.9918 15.7916 21.9918Z" fill="#DC2C00"/>
<g style="mix-blend-mode:multiply" opacity="0.5">
<path d="M14.9548 22.2994C15.2731 22.3396 15.5503 23.1593 15.332 23.2962C15.0834 23.416 14.2942 22.9679 14.0941 22.6135C14.0941 22.6135 14.6364 22.2591 14.9548 22.2994Z" fill="#D42F55"/>
</g>
<path d="M23.6985 24.1131C24.272 24.0574 24.6763 24.6883 24.5205 24.6801C24.3884 24.6653 22.6728 25.0359 22.5752 24.9604C22.471 24.8611 23.006 24.2016 23.6985 24.1131Z" fill="white"/>
<path d="M23.7423 27.4292C24.1845 27.6402 22.5805 27.6727 22.428 27.3051C22.428 27.3051 23.3173 27.188 23.7423 27.4292Z" fill="white"/>
<path d="M13.5557 33.8474C13.3745 33.2829 14.4451 33.7302 14.7781 34.3808C15.1176 35.0553 15.0445 35.9971 14.8016 35.8592C14.5826 35.7148 13.728 34.2863 13.5557 33.8474Z" fill="white"/>
<g style="mix-blend-mode:soft-light">
<path d="M25.9843 13.0886C25.7463 13.1542 21.4214 6.10283 15.8858 7.47533C9.93917 8.93556 9.60735 16.5539 9.05599 16.7827C8.4874 17.0419 7.1242 14.8832 7.38461 12.7632C7.88819 8.55374 12.0483 4.51383 14.8592 4.12294C17.6872 3.70169 21.5216 5.53757 23.6395 8.20509C25.8181 10.9071 26.1984 13.0296 25.9843 13.0886Z" fill="white"/>
</g>
<g style="mix-blend-mode:soft-light">
<path d="M22.8388 7.52975C23.0628 7.87764 15.0705 6.1896 14.4052 5.91219C13.7702 5.65202 12.9336 4.47458 14.686 4.14505C16.4385 3.81552 20.7407 4.19113 22.8388 7.52975Z" fill="white"/>
</g>
<path d="M10.3085 7.8609C10.8122 8.38769 9.30131 11.5436 8.7992 11.5796C8.26675 11.5984 8.09375 10.8781 8.54517 9.72954C8.86115 8.92558 10.0936 7.63854 10.3085 7.8609Z" fill="white"/>
<path d="M11.8216 6.29168C12.2925 6.69951 11.4105 7.12188 11.0684 7.08819C10.7435 7.02415 11.3943 5.94868 11.8216 6.29168Z" fill="white"/>
<g style="mix-blend-mode:multiply" opacity="0.8">
<path d="M31.2276 17.9923C32.1457 18.072 32.6026 18.1509 32.6814 18.4364C32.7601 18.7219 33.2698 22.2424 33.2698 22.2424C33.2698 22.2424 32.9357 18.059 32.9161 17.9877C32.8964 17.9163 31.2276 17.9923 31.2276 17.9923Z" fill="#923B66"/>
</g>
<g style="mix-blend-mode:multiply" opacity="0.5">
<path d="M20.2899 11.8423C20.2899 11.8423 20.2921 11.8502 20.2965 11.8661C22.9699 14.2268 24.2145 18.9272 24.2145 18.9272C25.8644 19.0612 28.7819 18.1288 28.7819 18.1288C28.7819 18.1288 28.7221 17.6333 28.5401 16.7874C27.5604 17.8768 26.6506 17.6412 26.0321 17.0692C25.3963 16.5277 24.0029 13.6092 22.1457 12.0731C20.7224 10.9038 19.9463 11.2458 20.2899 11.8423Z" fill="#FF3355"/>
</g>
<g style="mix-blend-mode:multiply" opacity="0.3">
<path d="M7.6226 17.4339C8.0779 17.6924 11.12 22.6909 10.805 23.0338C10.4833 23.3529 8.3369 24.4823 7.99324 23.8858C7.64301 23.2655 6.48643 16.7487 7.6226 17.4339Z" fill="#FF3355"/>
</g>
<g style="mix-blend-mode:multiply" opacity="0.5">
<path d="M7.86519 24.5356C7.86519 24.5356 10.9977 23.8256 12.3605 22.733C12.3605 22.733 11.6587 20.1872 11.7182 17.4314C11.4036 19.5406 10.8513 20.973 10.099 20.5659C9.36397 20.1285 7.56406 14.25 6.60143 16.0515C6.30775 21.0223 7.86519 24.5356 7.86519 24.5356Z" fill="#D42F55"/>
</g>
<g style="mix-blend-mode:screen" opacity="0.2">
<path d="M21.605 12.2478C22.2458 12.2504 25.9926 17.669 25.821 18.254C25.6257 18.8455 24.6806 18.3892 24.4608 17.9633C24.2107 17.5203 21.0357 12.2256 21.605 12.2478Z" fill="#FFB311"/>
</g>
<path d="M26.3214 13.6613C26.7275 13.3701 28.0808 15.8644 27.7182 16.2204C27.3317 16.583 25.7552 14.0222 26.3214 13.6613Z" fill="white"/>
<g style="mix-blend-mode:multiply" opacity="0.5">
<path d="M11.9671 15.0842C11.9671 15.0842 12.9632 8.94675 17.1383 9.51104C21.3436 10.0926 22.8606 15.4091 22.8606 15.4091C22.8606 15.4091 20.6044 10.4756 17.2341 10.5087C12.5347 10.5498 11.9671 15.0842 11.9671 15.0842Z" fill="#D42F55"/>
</g>
<g style="mix-blend-mode:multiply" opacity="0.8">
<path d="M25.1579 9.34822C25.1579 9.34822 20.7508 3.11317 13.9567 4.19259C13.9567 4.19259 9.6985 5.64816 7.25921 12.0298C7.25921 12.0298 8.42756 6.33136 13.7763 3.90951C13.7763 3.90951 19.9994 2.24504 25.1579 9.34822Z" fill="#D42F55"/>
</g>
<path d="M19.5054 8.34641C20.4537 8.44337 22.3364 9.79326 22.1468 10.1271C21.9638 10.4848 20.4543 10.2097 19.6192 9.59511C18.8883 9.07977 18.8277 8.30282 19.5054 8.34641Z" fill="#DC2C00"/>
<path d="M21.1092 9.05636C21.1092 9.05636 22.3906 9.80396 22.1969 10.2158C22.0549 10.5365 20.5708 10.0752 20.5708 10.0752C20.5708 10.0752 21.5889 10.3322 21.8023 9.99174C22.0157 9.6513 21.1092 9.05636 21.1092 9.05636Z" fill="#FFC716"/>
<g style="mix-blend-mode:multiply" opacity="0.5">
<path d="M20.4111 8.66C21.302 9.10563 20.3452 9.90703 19.6405 9.48686C18.9359 9.0667 18.8761 8.57115 19.274 8.43585C19.6654 8.27675 20.1682 8.52213 20.4111 8.66Z" fill="#D42F55"/>
</g>
<path d="M12.4847 26.1549C11.4854 26.4304 10.9312 28.7849 12.9076 28.8033C15.094 28.8405 14.6802 25.5752 12.4847 26.1549Z" fill="url(#paint12_linear_1_1258)"/>
<path d="M12.743 26.4421C12.1179 26.5888 11.8314 27.1286 11.9003 27.7497C11.965 28.4487 12.8034 28.704 13.3506 28.5531C14.1186 28.367 14.2262 27.3645 14.0433 26.9797C13.8539 26.5711 13.1713 26.324 12.743 26.4421Z" fill="url(#paint13_linear_1_1258)"/>
<g style="mix-blend-mode:multiply" opacity="0.4">
<path d="M12.3 26.6923C12.2048 26.7186 11.8422 27.0746 11.9126 27.516C11.9593 27.9639 12.1029 28.206 12.1505 28.1929C12.2046 28.2035 12.4508 27.9821 12.468 27.9517C12.4614 27.9279 12.3696 27.5948 12.4361 27.3717C12.496 27.1247 12.5001 27.0468 12.4936 27.023C12.4567 26.982 12.341 26.6554 12.3 26.6923Z" fill="#B82774"/>
</g>
<g style="mix-blend-mode:soft-light">
<path d="M12.5543 27.0574C12.3295 27.1706 12.4442 27.9582 12.5049 27.9927C12.7067 28.1675 13.4098 28.0248 13.5567 27.9075C13.656 27.8034 13.6454 27.115 13.5175 27.0223C13.3657 26.9361 12.7143 26.9877 12.5543 27.0574Z" fill="white"/>
</g>
<g style="mix-blend-mode:multiply" opacity="0.8">
<path d="M12.5049 27.9926C12.4138 27.9409 12.1808 28.21 12.1873 28.2338C12.3547 28.4692 12.6689 28.5874 13.1775 28.5752C13.5541 28.5482 13.8585 28.2595 13.8905 28.097C13.9012 28.0429 13.5977 27.8705 13.5567 27.9074C13.3039 28.1051 12.7411 28.1067 12.5049 27.9926Z" fill="#B82774"/>
</g>
<path opacity="0.7" d="M12.3345 26.6316C12.2869 26.6447 12.446 27.0361 12.4936 27.023C12.5715 27.0271 13.4937 27.0289 13.5109 26.9985C13.5757 26.955 13.8284 26.7574 13.7784 26.6687C13.7481 26.6515 13.3707 26.3971 12.9876 26.4003C12.5806 26.4101 12.3993 26.5881 12.3345 26.6316Z" fill="white"/>
<path d="M12.7431 26.4422C12.7431 26.4422 13.0828 26.3741 13.4273 26.5096C13.4273 26.5096 13.5208 26.663 13.2525 26.7113C13.008 26.7532 12.7431 26.4422 12.7431 26.4422Z" fill="white"/>
<path d="M12.4459 27.7785C12.4221 27.7851 12.308 28.0214 12.3449 28.0624C12.3753 28.0796 12.596 28.0444 12.596 28.0444C12.5894 28.0206 12.4934 27.7654 12.4459 27.7785Z" fill="white"/>
<path d="M13.6018 27.7927C13.5239 27.7886 13.3901 27.9534 13.4033 28.001C13.4336 28.0183 13.6953 27.9461 13.6888 27.9223C13.6888 27.9223 13.6732 27.773 13.6018 27.7927Z" fill="white"/>
<path d="M11.6566 28.0729C11.6566 28.0729 11.942 28.7366 12.9076 28.8032C13.7953 28.8657 14.1572 28.2283 14.1851 28.1438C14.1851 28.1438 13.8715 29.0495 12.7607 28.9205C11.8361 28.817 11.6566 28.0729 11.6566 28.0729Z" fill="url(#paint14_linear_1_1258)"/>
<g style="mix-blend-mode:multiply" opacity="0.8">
<path d="M11.6016 27.7809C11.7191 27.1853 12.1606 26.3723 13.0958 26.4217C14.0615 26.4883 14.2287 27.4662 14.3377 27.769C14.3377 27.769 14.7228 26.1011 13.3191 25.7457C12.6562 25.57 12.1032 25.9785 11.8619 26.4034C11.5238 27.0343 11.6016 27.7809 11.6016 27.7809Z" fill="#D12774"/>
</g>
<path d="M16.4592 23.856C15.4598 24.1315 14.9295 26.4794 16.8821 26.5044C19.0685 26.5416 18.6547 23.2763 16.4592 23.856Z" fill="url(#paint15_linear_1_1258)"/>
<path d="M16.7176 24.1432C16.0924 24.2899 15.806 24.8297 15.8748 25.4508C15.9395 26.1498 16.8017 26.3985 17.3251 26.2542C18.0931 26.0681 18.2007 25.0656 18.0178 24.6808C17.8284 24.2722 17.1458 24.0251 16.7176 24.1432Z" fill="url(#paint16_linear_1_1258)"/>
<g style="mix-blend-mode:multiply" opacity="0.4">
<path d="M16.2745 24.3933C16.1793 24.4196 15.8404 24.769 15.8871 25.217C15.9338 25.6649 16.0774 25.907 16.1249 25.8938C16.1791 25.9045 16.4252 25.683 16.4425 25.6527C16.4359 25.6289 16.3441 25.2958 16.4106 25.0726C16.4705 24.8257 16.4746 24.7478 16.4681 24.724C16.4311 24.683 16.3155 24.3564 16.2745 24.3933Z" fill="#B82774"/>
</g>
<g style="mix-blend-mode:soft-light">
<path d="M16.5288 24.7584C16.3277 24.865 16.4187 25.6592 16.4794 25.6937C16.6812 25.8685 17.3843 25.7258 17.5312 25.6085C17.6543 25.4978 17.6437 24.8095 17.4919 24.7233C17.3402 24.6371 16.6887 24.6887 16.5288 24.7584Z" fill="white"/>
</g>
<g style="mix-blend-mode:multiply" opacity="0.8">
<path d="M16.4794 25.6937C16.3883 25.642 16.1553 25.9111 16.1618 25.9349C16.3292 26.1704 16.6434 26.2885 17.152 26.2763C17.5286 26.2493 17.8568 25.954 17.865 25.7981C17.8995 25.7374 17.596 25.5651 17.5312 25.6086C17.2784 25.8062 16.7156 25.8078 16.4794 25.6937Z" fill="#B82774"/>
</g>
<path opacity="0.7" d="M16.3024 24.3088C16.2614 24.3457 16.4443 24.7305 16.468 24.724C16.546 24.7281 17.4681 24.7299 17.4854 24.6995C17.5502 24.656 17.8267 24.4518 17.7529 24.3697C17.7463 24.3459 17.3452 24.0981 16.962 24.1013C16.5551 24.1111 16.3672 24.2653 16.3024 24.3088Z" fill="white"/>
<path d="M16.7176 24.1432C16.7176 24.1432 17.0572 24.0752 17.4256 24.204C17.4256 24.204 17.4953 24.364 17.227 24.4124C16.9825 24.4542 16.7176 24.1432 16.7176 24.1432Z" fill="white"/>
<path d="M16.4203 25.4796C16.39 25.4624 16.2825 25.7224 16.3128 25.7397C16.3497 25.7807 16.5704 25.7454 16.5704 25.7454C16.5639 25.7217 16.4679 25.4665 16.4203 25.4796Z" fill="white"/>
<path d="M17.6001 25.4872C17.4984 25.4897 17.3646 25.6546 17.395 25.6718C17.4081 25.7194 17.6698 25.6472 17.6633 25.6234C17.6805 25.5931 17.6477 25.4741 17.6001 25.4872Z" fill="white"/>
<path d="M15.6245 25.7502C15.6245 25.7502 15.9402 26.4312 16.8821 26.5043C17.7698 26.5668 18.1317 25.9294 18.1596 25.8449C18.1596 25.8449 17.8395 26.7268 16.7352 26.6216C15.8106 26.5181 15.6245 25.7502 15.6245 25.7502Z" fill="url(#paint17_linear_1_1258)"/>
<g style="mix-blend-mode:multiply" opacity="0.8">
<path d="M15.5761 25.4819C15.6936 24.8863 16.1351 24.0734 17.0941 24.1162C18.036 24.1893 18.2204 25.137 18.3123 25.4701C18.3123 25.4701 18.6973 23.8022 17.2936 23.4467C16.6307 23.2711 16.0777 23.6796 15.8364 24.1045C15.4983 24.7353 15.5761 25.4819 15.5761 25.4819Z" fill="#D12774"/>
</g>
<path d="M25.0157 21.3691C24.0992 21.8522 24.0734 24.2659 26.0163 23.8838C28.1428 23.4256 27.039 20.3505 25.0157 21.3691Z" fill="url(#paint18_linear_1_1258)"/>
<path d="M25.3324 21.589C24.7704 21.872 24.5988 22.4569 24.7866 23.0452C25.0244 23.722 25.8883 23.7911 26.3789 23.5278C27.101 23.1752 26.9813 22.1841 26.7336 21.8427C26.4556 21.4842 25.741 21.3996 25.3324 21.589Z" fill="url(#paint19_linear_1_1258)"/>
<g style="mix-blend-mode:multiply" opacity="0.4">
<path d="M24.9394 21.9277C24.8811 21.995 24.6095 22.4027 24.7513 22.8244C24.8998 23.2699 25.0778 23.4513 25.1253 23.4381C25.1729 23.425 25.3822 23.1625 25.3756 23.1387C25.3691 23.1149 25.2362 22.8187 25.2182 22.5677C25.2305 22.3339 25.2346 22.2559 25.1977 22.2149C25.1674 22.1977 25.0042 21.8842 24.9394 21.9277Z" fill="#B82774"/>
</g>
<g style="mix-blend-mode:soft-light">
<path d="M25.2822 22.2428C25.0943 22.397 25.3756 23.1387 25.4298 23.1494C25.6791 23.3111 26.3125 23.0084 26.4463 22.8436C26.5456 22.7394 26.3857 22.0666 26.2167 22.0108C26.0477 21.955 25.4291 22.1255 25.2822 22.2428Z" fill="white"/>
</g>
<g style="mix-blend-mode:multiply" opacity="0.8">
<path d="M25.4298 23.1494C25.3518 23.1453 25.1491 23.4316 25.1795 23.4488C25.3944 23.6712 25.7431 23.7287 26.1886 23.5803C26.5693 23.4753 26.8302 23.1217 26.8146 22.9724C26.8188 22.8945 26.4873 22.8067 26.4463 22.8436C26.2371 23.1061 25.6833 23.2331 25.4298 23.1494Z" fill="#B82774"/>
</g>
<path opacity="0.7" d="M24.9738 21.867C24.9566 21.8974 25.1805 22.2453 25.2281 22.2321C25.2995 22.2125 26.1929 22.0173 26.2102 21.987C26.2684 21.9197 26.4777 21.6572 26.3866 21.6055C26.3801 21.5817 25.951 21.4184 25.5703 21.5234C25.1831 21.6045 25.0321 21.7998 24.9738 21.867Z" fill="white"/>
<path d="M25.3324 21.589C25.3324 21.589 25.6524 21.4496 26.0248 21.5005C26.0248 21.5005 26.1421 21.6473 25.887 21.7433C25.6556 21.8327 25.3324 21.589 25.3324 21.589Z" fill="white"/>
<path d="M25.3297 22.9721C25.3059 22.9787 25.2525 23.2494 25.2829 23.2667C25.337 23.2773 25.5446 23.1945 25.5446 23.1945C25.5143 23.1773 25.3707 22.9352 25.3297 22.9721Z" fill="white"/>
<path d="M26.4677 22.7352C26.3963 22.7549 26.2929 22.937 26.3232 22.9542C26.3363 23.0018 26.5849 22.8821 26.5784 22.8583C26.5718 22.8345 26.539 22.7155 26.4677 22.7352Z" fill="white"/>
<path d="M24.6339 23.42C24.6339 23.42 25.0555 24.0206 26.0162 23.8837C26.8752 23.7493 27.0919 23.0495 27.1198 22.965C27.1198 22.965 26.9925 23.8962 25.8997 24.0183C24.9562 24.1248 24.6339 23.42 24.6339 23.42Z" fill="url(#paint20_linear_1_1258)"/>
<g style="mix-blend-mode:multiply" opacity="0.8">
<path d="M24.5142 23.1714C24.493 22.5372 24.7351 21.6512 25.6958 21.5144C26.65 21.3537 27.0076 22.2792 27.1577 22.545C27.1577 22.545 27.2006 20.8435 25.7567 20.8063C25.0552 20.7693 24.6064 21.2771 24.4799 21.7472C24.2632 22.4469 24.5142 23.1714 24.5142 23.1714Z" fill="#D12774"/>
</g>
<path d="M29.2507 21.6864C28.3104 22.176 28.2846 24.5897 30.2208 24.1839C32.354 23.7494 31.2436 20.6505 29.2507 21.6864Z" fill="url(#paint21_linear_1_1258)"/>
<path d="M29.5435 21.9127C28.9815 22.1957 28.8099 22.7806 28.9977 23.3689C29.2355 24.0458 30.0928 24.091 30.5901 23.8516C31.3121 23.4989 31.1924 22.5078 30.9382 22.1427C30.6667 21.8079 29.9455 21.6995 29.5435 21.9127Z" fill="url(#paint22_linear_1_1258)"/>
<g style="mix-blend-mode:multiply" opacity="0.4">
<path d="M29.1743 22.245C29.0857 22.295 28.814 22.7027 28.9625 23.1482C29.1043 23.5699 29.2889 23.7751 29.3365 23.762C29.3841 23.7488 29.5868 23.4625 29.5802 23.4388C29.5974 23.4084 29.4408 23.1188 29.4531 22.8849C29.4351 22.6339 29.4392 22.556 29.4327 22.5322C29.3957 22.4911 29.2153 22.2081 29.1743 22.245Z" fill="#B82774"/>
</g>
<g style="mix-blend-mode:soft-light">
<path d="M29.4934 22.5667C29.3293 22.7143 29.5802 23.4388 29.6409 23.4733C29.8837 23.6112 30.5409 23.302 30.6575 23.1674C30.7502 23.0395 30.5969 22.3905 30.4213 22.3109C30.2523 22.2551 29.6402 22.4494 29.4934 22.5667Z" fill="white"/>
</g>
<g style="mix-blend-mode:multiply" opacity="0.8">
<path d="M29.6409 23.4733C29.5564 23.4454 29.3603 23.7555 29.3906 23.7727C29.599 23.9713 29.9477 24.0288 30.4235 23.8976C30.8042 23.7926 31.0414 23.4456 31.0192 23.2725C31.0299 23.2184 30.6919 23.1067 30.6575 23.1674C30.4482 23.4299 29.9116 23.5267 29.6409 23.4733Z" fill="#B82774"/>
</g>
<path opacity="0.7" d="M29.2022 22.1605C29.1612 22.1974 29.3851 22.5453 29.4327 22.5322C29.504 22.5125 30.3975 22.3174 30.4148 22.287C30.4796 22.2436 30.6888 21.9811 30.615 21.899C30.5846 21.8818 30.1621 21.7422 29.7749 21.8234C29.3942 21.9283 29.2432 22.1236 29.2022 22.1605Z" fill="white"/>
<path d="M29.5435 21.9128C29.5435 21.9128 29.8873 21.7668 30.236 21.8243C30.236 21.8243 30.3533 21.9712 30.0981 22.0672C29.8667 22.1565 29.5435 21.9128 29.5435 21.9128Z" fill="white"/>
<path d="M29.5343 23.2723C29.5105 23.2788 29.4809 23.543 29.5113 23.5602C29.5416 23.5775 29.7558 23.5184 29.7492 23.4946C29.7254 23.5012 29.5819 23.2592 29.5343 23.2723Z" fill="white"/>
<path d="M30.6961 23.0288C30.6009 23.055 30.504 23.2609 30.5344 23.2782C30.5409 23.302 30.7896 23.1822 30.8068 23.1519C30.8002 23.1281 30.7436 23.0157 30.6961 23.0288Z" fill="white"/>
<path d="M28.8385 23.7201C28.8385 23.7201 29.2601 24.3207 30.2208 24.1839C31.0798 24.0495 31.2965 23.3497 31.3245 23.2652C31.3245 23.2652 31.2037 24.2201 30.1043 24.3184C29.1608 24.4249 28.8385 23.7201 28.8385 23.7201Z" fill="url(#paint23_linear_1_1258)"/>
<g style="mix-blend-mode:multiply" opacity="0.8">
<path d="M28.7187 23.4715C28.7041 22.8611 28.9462 21.9751 29.9004 21.8144C30.8546 21.6538 31.2359 22.5727 31.3926 22.8623C31.3926 22.8623 31.4052 21.1435 29.985 21.0998C29.2901 21.0866 28.8413 21.5944 28.6911 22.071C28.4744 22.7708 28.7187 23.4715 28.7187 23.4715Z" fill="#D12774"/>
</g>
<defs>
<linearGradient id="paint0_linear_1_1258" x1="4.51955" y1="24.101" x2="32.4766" y2="16.3935" gradientUnits="userSpaceOnUse">
<stop stop-color="#FF8100"/>
<stop offset="1" stop-color="#FFBA00"/>
</linearGradient>
<linearGradient id="paint1_linear_1_1258" x1="19.3015" y1="16.0576" x2="32.2965" y2="34.3131" gradientUnits="userSpaceOnUse">
<stop stop-color="#FF5900"/>
<stop offset="0.2" stop-color="#FE6800"/>
<stop offset="0.7" stop-color="#FA9300"/>
<stop offset="0.8" stop-color="#F66A00"/>
<stop offset="1" stop-color="#F63F00"/>
</linearGradient>
<linearGradient id="paint2_linear_1_1258" x1="26.0396" y1="15.8896" x2="28.9829" y2="23.5011" gradientUnits="userSpaceOnUse">
<stop stop-color="#FF8100"/>
<stop offset="1" stop-color="#FFBB34"/>
</linearGradient>
<linearGradient id="paint3_linear_1_1258" x1="13.6077" y1="26.7925" x2="28.0277" y2="24.8652" gradientUnits="userSpaceOnUse">
<stop stop-color="#FF8100"/>
<stop offset="1" stop-color="#FFBB34"/>
</linearGradient>
<linearGradient id="paint4_linear_1_1258" x1="28.0218" y1="25.8653" x2="32.9087" y2="43.5913" gradientUnits="userSpaceOnUse">
<stop stop-color="#FFBA00"/>
<stop offset="0.2" stop-color="#FE6800"/>
<stop offset="1" stop-color="#D41B00"/>
</linearGradient>
<linearGradient id="paint5_linear_1_1258" x1="22.6173" y1="23.72" x2="22.978" y2="25.0286" gradientUnits="userSpaceOnUse">
<stop stop-color="#DE330E"/>
<stop offset="1" stop-color="#930000"/>
</linearGradient>
<linearGradient id="paint6_linear_1_1258" x1="9.35191" y1="23.6137" x2="27.8868" y2="18.5037" gradientUnits="userSpaceOnUse">
<stop stop-color="#FFAC15"/>
<stop offset="0.6" stop-color="#FF8100"/>
<stop offset="0.7" stop-color="#FFA400"/>
<stop offset="1" stop-color="#FFBA00"/>
</linearGradient>
<linearGradient id="paint7_linear_1_1258" x1="4.88035" y1="25.4097" x2="9.54382" y2="24.124" gradientUnits="userSpaceOnUse">
<stop stop-color="#FF5900"/>
<stop offset="0.2" stop-color="#FE6800"/>
<stop offset="1" stop-color="#E82C00"/>
</linearGradient>
<radialGradient id="paint8_radial_1_1258" cx="0" cy="0" r="1" gradientUnits="userSpaceOnUse" gradientTransform="translate(16.1127 15.1701) rotate(-15.4131) scale(9.52681)">
<stop stop-color="#FFEA34"/>
<stop offset="0.6" stop-color="#FF8100"/>
<stop offset="0.9" stop-color="#FFA400"/>
<stop offset="1" stop-color="#FFBA00"/>
</radialGradient>
<linearGradient id="paint9_linear_1_1258" x1="27.9758" y1="26.4414" x2="30.7505" y2="36.5059" gradientUnits="userSpaceOnUse">
<stop stop-color="#D41B00"/>
<stop offset="0.8" stop-color="#FE6800"/>
</linearGradient>
<linearGradient id="paint10_linear_1_1258" x1="12.9457" y1="26.8984" x2="25.0068" y2="25.9798" gradientUnits="userSpaceOnUse">
<stop stop-color="#FF8100"/>
<stop offset="1" stop-color="#FFBB34"/>
</linearGradient>
<linearGradient id="paint11_linear_1_1258" x1="27.9241" y1="26.5323" x2="31.44" y2="39.2855" gradientUnits="userSpaceOnUse">
<stop stop-color="#DE330E"/>
<stop offset="1" stop-color="#930000"/>
</linearGradient>
<linearGradient id="paint12_linear_1_1258" x1="14.251" y1="26.1543" x2="13.8476" y2="29.7986" gradientUnits="userSpaceOnUse">
<stop offset="0.1" stop-color="#FF4B00"/>
<stop offset="1" stop-color="#FF7204"/>
</linearGradient>
<linearGradient id="paint13_linear_1_1258" x1="11.663" y1="28.8392" x2="11.8628" y2="25.9423" gradientUnits="userSpaceOnUse">
<stop stop-color="#DE0086"/>
<stop offset="1" stop-color="#FF003B"/>
</linearGradient>
<linearGradient id="paint14_linear_1_1258" x1="11.7091" y1="27.5207" x2="14.4739" y2="27.7058" gradientUnits="userSpaceOnUse">
<stop stop-color="#FFDE00"/>
<stop offset="1" stop-color="#FFE834"/>
</linearGradient>
<linearGradient id="paint15_linear_1_1258" x1="18.2255" y1="23.8554" x2="17.8221" y2="27.4997" gradientUnits="userSpaceOnUse">
<stop offset="0.1" stop-color="#FF4B00"/>
<stop offset="1" stop-color="#FF7204"/>
</linearGradient>
<linearGradient id="paint16_linear_1_1258" x1="15.6375" y1="26.5403" x2="15.8373" y2="23.6434" gradientUnits="userSpaceOnUse">
<stop stop-color="#DE0086"/>
<stop offset="1" stop-color="#FF003B"/>
</linearGradient>
<linearGradient id="paint17_linear_1_1258" x1="15.6771" y1="25.198" x2="18.4484" y2="25.4069" gradientUnits="userSpaceOnUse">
<stop stop-color="#FFDE00"/>
<stop offset="1" stop-color="#FFE834"/>
</linearGradient>
<linearGradient id="paint18_linear_1_1258" x1="26.682" y1="21.1913" x2="26.9999" y2="24.2015" gradientUnits="userSpaceOnUse">
<stop offset="0.1" stop-color="#FF4B00"/>
<stop offset="1" stop-color="#FF7204"/>
</linearGradient>
<linearGradient id="paint19_linear_1_1258" x1="24.7848" y1="23.9673" x2="24.4447" y2="21.5265" gradientUnits="userSpaceOnUse">
<stop stop-color="#DE0086"/>
<stop offset="1" stop-color="#FF003B"/>
</linearGradient>
<linearGradient id="paint20_linear_1_1258" x1="24.6052" y1="23.2231" x2="27.2191" y2="22.8609" gradientUnits="userSpaceOnUse">
<stop stop-color="#FFDE00"/>
<stop offset="1" stop-color="#FFE834"/>
</linearGradient>
<linearGradient id="paint21_linear_1_1258" x1="30.8932" y1="21.5152" x2="31.211" y2="24.5253" gradientUnits="userSpaceOnUse">
<stop offset="0.1" stop-color="#FF4B00"/>
<stop offset="1" stop-color="#FF7204"/>
</linearGradient>
<linearGradient id="paint22_linear_1_1258" x1="28.9959" y1="24.2911" x2="28.6558" y2="21.8503" gradientUnits="userSpaceOnUse">
<stop stop-color="#DE0086"/>
<stop offset="1" stop-color="#FF003B"/>
</linearGradient>
<linearGradient id="paint23_linear_1_1258" x1="28.8098" y1="23.5232" x2="31.4237" y2="23.161" gradientUnits="userSpaceOnUse">
<stop stop-color="#FFDE00"/>
<stop offset="1" stop-color="#FFE834"/>
</linearGradient>
</defs>
</svg>
