<svg width="58" height="61" viewBox="0 0 58 61" fill="none" xmlns="http://www.w3.org/2000/svg">
<path fill-rule="evenodd" clip-rule="evenodd" d="M7.05721 4.61135L7.07273 4.62059L7.14582 4.66378C7.21316 4.70339 7.317 4.76405 7.45381 4.84277C7.72762 5.00031 8.13235 5.22946 8.6399 5.50631C9.6584 6.06185 11.0738 6.80008 12.665 7.53449C14.3756 8.32396 16.1 9.0178 17.6659 9.51193V1.94321L24.9878 6.73729L28.9576 1.06615L32.9274 6.73729L40.2492 1.94321V9.51193C41.8152 9.0178 43.5396 8.32396 45.2501 7.53449C46.8413 6.80008 48.2567 6.06185 49.2752 5.50631C49.7828 5.22946 50.1875 5.00031 50.4613 4.84277C50.5981 4.76406 50.702 4.70339 50.7693 4.66378L50.8424 4.62059L50.8575 4.61158L56.9159 0.976562V10.6862C56.9137 11.6132 56.7542 12.5288 56.448 13.395L57.0304 13.5406L55.6703 17.6355L53.871 17.0378C53.8708 17.038 53.8711 17.0377 53.871 17.0378C55.6703 17.6365 55.669 17.6394 55.6682 17.6419L55.666 17.6484L55.6615 17.6617L55.652 17.6893C55.6455 17.708 55.6386 17.7276 55.6312 17.748C55.6164 17.7888 55.5997 17.8328 55.5811 17.8798C55.5439 17.9738 55.4987 18.0799 55.4442 18.1963C55.3351 18.4291 55.1883 18.7038 54.9932 19.0047C54.6004 19.6107 54.0201 20.3096 53.183 20.9754C52.481 21.5337 51.647 22.0311 50.6659 22.4332V33.6235C50.6659 33.6239 50.6659 33.6243 50.6659 33.6247C50.6669 37.95 49.5378 42.2006 47.3904 45.9553C45.2428 49.7103 42.1513 52.8389 38.4223 55.0312L38.419 55.0331L34.2202 57.4963L34.2107 57.5019L28.8614 60.6597L18.5852 54.0133C15.1064 51.7601 12.2467 48.6723 10.2668 45.0311L13.7808 43.1203C15.4419 46.1751 17.8411 48.7656 20.7596 50.6559L28.9576 55.958L32.1867 54.0517L36.3951 51.583C39.5233 49.7439 42.1166 47.1194 43.9182 43.9694C45.7197 40.8195 46.6669 37.2534 46.6659 33.6247V19.4997C46.1972 19.4997 45.7494 19.4892 45.3016 19.4788C45.7909 19.4598 46.2449 19.4204 46.6659 19.3645C46.8105 19.3453 46.9511 19.3242 47.088 19.3012C47.7549 19.1894 48.332 19.0347 48.8309 18.8544C49.626 18.567 50.2222 18.2144 50.6659 17.8663C51.0225 17.5866 51.2806 17.3097 51.4643 17.0719C51.5903 16.9088 51.6813 16.764 51.745 16.6492C51.8396 16.4789 51.8742 16.3747 51.8742 16.3747L47.7076 15.333L50.6138 14.4059C51.25 14.0851 51.7929 13.6077 52.1922 13.02C52.2264 12.9696 52.2596 12.9185 52.2917 12.8665C52.3815 12.721 52.462 12.5706 52.533 12.4162C52.7831 11.8724 52.9145 11.2793 52.9159 10.6767V8.04133C52.9159 8.04133 51.28 9.02284 48.9159 10.2079C47.7965 10.7691 46.5138 11.3759 45.1642 11.9457C43.5664 12.6204 41.8748 13.2432 40.2492 13.6773C39.6559 13.8358 39.0713 13.969 38.5033 14.0705C37.7129 14.2117 36.9545 14.2913 36.2492 14.2913L36.2492 9.34341L31.8742 12.208L28.9576 8.04133L26.0409 12.208L21.6659 9.34341V14.2913C20.9606 14.2913 20.2022 14.2117 19.4118 14.0705C18.8438 13.969 18.2593 13.8358 17.6659 13.6773C16.0404 13.2432 14.3488 12.6204 12.751 11.9457C11.4013 11.3759 10.1186 10.7691 8.99923 10.2079C6.63509 9.02284 4.99923 8.04133 4.99923 8.04133V10.6767C5.00065 11.2793 5.13206 11.8724 5.38213 12.4162C5.45311 12.5706 5.53365 12.721 5.62348 12.8665C5.65555 12.9185 5.68871 12.9696 5.72292 13.02C6.12219 13.6077 6.6651 14.0851 7.30131 14.4059L10.2076 15.333L6.0409 16.3747C6.0409 16.3747 6.07551 16.4789 6.17013 16.6492C6.23388 16.764 6.32488 16.9088 6.45087 17.0719C6.63457 17.3097 6.89267 17.5866 7.24923 17.8663C7.69296 18.2144 8.28917 18.567 9.08425 18.8544C9.5831 19.0347 10.1602 19.1894 10.8271 19.3012C10.964 19.3242 11.1047 19.3453 11.2492 19.3645C11.6703 19.4204 12.1242 19.4598 12.6136 19.4788C12.1657 19.4892 11.7179 19.4997 11.2492 19.4997V33.1663C11.2494 36.6436 12.1197 40.0655 13.7808 43.1203L10.2668 45.0311C8.28677 41.39 7.24942 37.3112 7.24923 33.1665V22.4332C6.2681 22.0311 5.43412 21.5337 4.7321 20.9754C3.895 20.3096 3.31472 19.6107 2.92191 19.0047C2.72682 18.7038 2.58004 18.4291 2.47097 18.1963C2.41643 18.0799 2.37121 17.9738 2.33401 17.8798C2.3154 17.8328 2.29877 17.7888 2.28396 17.748C2.27656 17.7276 2.26961 17.708 2.26309 17.6893L2.25363 17.6617L2.24913 17.6484L2.24695 17.6419C2.24611 17.6394 2.24526 17.6369 4.04458 17.0382C4.04444 17.0381 4.04472 17.0383 4.04458 17.0382L2.2448 17.6355L0.884766 13.5406L1.4671 13.395C1.16098 12.5288 1.00143 11.6132 0.999243 10.6862L0.99922 10.6767L0.999231 0.976563L7.05721 4.61135ZM12.6136 19.4788C12.6135 19.4788 12.6137 19.4788 12.6136 19.4788V19.4788Z" fill="#363C3F"/>
<path d="M21.7084 14.2917V18.1979C18.7587 19.0128 15.7162 19.4434 12.6563 19.4792C7.04169 19.2604 6.08335 16.375 6.08335 16.375L10.25 15.3333L7.34377 14.4062C6.65304 14.0579 6.07229 13.5251 5.66594 12.8669C5.25958 12.2086 5.04351 11.4506 5.04169 10.6771V8.04166C5.04169 8.04166 15.4584 14.2917 21.7084 14.2917Z" fill="#FF8F75"/>
<path d="M51.9167 16.375C51.9167 16.375 50.9584 19.2604 45.3438 19.4792C42.2838 19.4434 39.2413 19.0128 36.2917 18.1979V14.2917C42.5417 14.2917 52.9584 8.04166 52.9584 8.04166V10.6771C52.9565 11.4506 52.7405 12.2086 52.3341 12.8669C51.9278 13.5251 51.347 14.0579 50.6563 14.4062L47.75 15.3333L51.9167 16.375Z" fill="#FF8F75"/>
<path d="M36.2917 14.2917V18.1979C30.8959 16.6667 29 14.2917 29 14.2917C29 14.2917 27.1042 16.6667 21.7084 18.1979V9.34374L26.0834 12.2083L29 8.04166L31.9167 12.2083L36.2917 9.34374V14.2917Z" fill="#FFDC56"/>
<path d="M30.2292 51.0312L29 51.7917L27.8021 50.9792L22.7396 47.5521C20.4784 45.9895 18.6331 43.8983 17.3641 41.4602C16.0952 39.0221 15.441 36.311 15.4583 33.5625V22.625C18.7952 22.7199 22.1174 22.1461 25.2292 20.9375L29 24.7083L32.7708 20.9375C35.8826 22.1461 39.2048 22.7199 42.5417 22.625V33.9271C42.5639 36.7921 41.8541 39.6153 40.4796 42.1291C39.1051 44.6429 37.1114 46.7641 34.6875 48.2917L30.2292 51.0312Z" fill="#E9E9FF"/>
<path d="M45.3438 19.4792C45.7917 19.4896 46.2396 19.5 46.7084 19.5V33.625C46.7094 37.2537 45.7622 40.8198 43.9606 43.9697C42.1591 47.1197 39.5657 49.7443 36.4375 51.5833L32.2292 54.0521L32.125 53.875L30.2292 51.0312L34.6875 48.2917C37.1114 46.7641 39.1051 44.6429 40.4796 42.1291C41.8541 39.6153 42.5639 36.7921 42.5417 33.9271V22.625C39.2048 22.7199 35.8826 22.1461 32.7709 20.9375C31.3336 20.4248 30.0404 19.5746 29 18.4583C27.9596 19.5746 26.6664 20.4248 25.2292 20.9375C22.1174 22.1461 18.7953 22.7199 15.4584 22.625V33.5625C15.441 36.311 16.0952 39.0221 17.3642 41.4602C18.6331 43.8983 20.4784 45.9895 22.7396 47.5521L27.8021 50.9792L25.875 53.875L25.8438 53.9167L20.8021 50.6562C17.8835 48.766 15.4844 46.1754 13.8233 43.1206C12.1621 40.0658 11.2918 36.6439 11.2917 33.1667V19.5C11.7604 19.5 12.2084 19.4896 12.6563 19.4792C15.7162 19.4434 18.7587 19.0128 21.7084 18.1979C27.1042 16.6667 29 14.2917 29 14.2917C29 14.2917 30.8959 16.6667 36.2917 18.1979C39.2413 19.0128 42.2838 19.4434 45.3438 19.4792Z" fill="#215A80"/>
<path d="M29 14.2916C29 14.2916 30.8959 16.6666 36.2917 18.1979V16.1146C30.8959 14.5833 29 12.2083 29 12.2083C29 12.2083 27.1042 14.5833 21.7084 16.1146V18.1979C27.1042 16.6666 29 14.2916 29 14.2916Z" fill="#FFB337"/>
<path d="M42.5417 21.0625C39.413 21.151 36.2977 20.62 33.375 19.5C32.1992 19.0729 31.1304 18.3951 30.2427 17.5135C30.0974 17.3278 29.912 17.1773 29.7005 17.073C29.489 16.9688 29.2567 16.9136 29.0209 16.9114C28.784 16.9134 28.5504 16.9664 28.3359 17.0669C28.1214 17.1674 27.9312 17.313 27.7781 17.4937C26.8881 18.387 25.8113 19.0722 24.625 19.5C21.7023 20.6197 18.587 21.1508 15.4584 21.0625C15.044 21.0625 14.6465 21.2271 14.3535 21.5201C14.0605 21.8131 13.8959 22.2106 13.8959 22.625V33.5625C13.8717 36.5675 14.5856 39.5325 15.9748 42.1972C17.364 44.862 19.3861 47.145 21.8636 48.8458L28.1229 53.0844C28.3726 53.2538 28.666 53.3473 28.9677 53.3536C29.2694 53.3598 29.5664 53.2786 29.8229 53.1198L35.5052 49.6229C38.1521 47.9507 40.3301 45.6327 41.8344 42.8869C43.3386 40.1412 44.1197 37.0579 44.1042 33.9271V22.625C44.1042 22.2106 43.9396 21.8131 43.6465 21.5201C43.3535 21.2271 42.9561 21.0625 42.5417 21.0625ZM42.5417 33.9271C42.5639 36.792 41.8541 39.6152 40.4796 42.1291C39.1051 44.6429 37.1114 46.7641 34.6875 48.2916L30.2292 51.0312L29 51.7916L27.8021 50.9791L22.7396 47.5521C20.4784 45.9895 18.6331 43.8983 17.3642 41.4602C16.0952 39.0221 15.441 36.311 15.4584 33.5625V22.625C18.7953 22.7199 22.1174 22.1461 25.2292 20.9375C26.6665 20.4248 27.9596 19.5746 29 18.4583C30.0404 19.5746 31.3336 20.4248 32.7709 20.9375C35.8826 22.1461 39.2048 22.7199 42.5417 22.625V33.9271Z" fill="#269580"/>
<path d="M29 18.4583C27.9596 19.5746 26.6664 20.4248 25.2292 20.9375C22.1174 22.1461 18.7952 22.7199 15.4583 22.625V33.5625C15.441 36.311 16.0952 39.0221 17.3641 41.4602C18.6331 43.8983 20.4784 45.9895 22.7396 47.5521L27.8021 50.9791L29 51.7916L30.2292 51.0312L34.6875 48.2916C37.1114 46.7641 39.1051 44.6429 40.4796 42.1291C41.8541 39.6152 42.5639 36.792 42.5417 33.9271V22.625C39.2048 22.7199 35.8826 22.1461 32.7708 20.9375C31.3336 20.4248 30.0404 19.5746 29 18.4583ZM40.9792 33.9271C40.9965 36.524 40.3531 39.0826 39.1094 41.3624C37.8658 43.6422 36.0627 45.5682 33.8698 46.9594L29.4115 49.6989L29.0438 49.9271L23.6208 46.2552C21.5661 44.8411 19.8898 42.9444 18.739 40.7314C17.5883 38.5183 16.9983 36.0567 17.0208 33.5625V24.1562C20.0392 24.0943 23.0224 23.4946 25.8302 22.3854C26.9609 21.9256 28.0266 21.3198 29 20.5833C29.9714 21.3172 31.035 21.9203 32.1636 22.3771C34.9728 23.49 37.9582 24.0925 40.9792 24.1562V33.9271Z" fill="#C9D1F6"/>
<path d="M32.2292 54.0521L29 55.9583L25.8438 53.9167L25.875 53.875L27.8021 50.9792L29 51.7917L30.2292 51.0312L32.125 53.875L32.2292 54.0521Z" fill="#FFDC56"/>
<path d="M32.7709 20.9375L29 24.7083L25.2292 20.9375C26.6664 20.4248 27.9596 19.5746 29 18.4583C30.0404 19.5746 31.3336 20.4248 32.7709 20.9375Z" fill="#FFDC56"/>
<path d="M31.3688 20.2562C30.4768 19.8054 29.6742 19.1962 29 18.4583C28.3259 19.1962 27.5233 19.8054 26.6313 20.2562L29 22.625L31.3688 20.2562Z" fill="#FF8F75"/>
<path d="M26.4084 22.1167C26.2177 22.2042 26.0375 22.2938 25.8302 22.3802C23.5556 23.2878 21.1557 23.8425 18.7136 24.025C19.2362 28.9132 21.3175 33.5037 24.6499 37.118C27.9823 40.7323 32.389 43.1788 37.2188 44.0958C39.6489 41.2656 40.9832 37.6575 40.9792 33.9271V24.1563C37.9582 24.0925 34.9728 23.49 32.1636 22.3771C31.9552 22.2917 31.7802 22.2031 31.5917 22.1167L29 24.7083L26.4084 22.1167Z" fill="white"/>
<path d="M31.2428 52.551L30.2292 51.0312L29 51.7917L27.8021 50.9792L26.8157 52.4614L29 53.875L31.2428 52.551Z" fill="#FF8F75"/>
<path d="M52.9584 10.6771V8.04166C52.9584 8.04166 42.5417 14.2917 36.2917 14.2917V18.1979C37.3385 18.4996 38.4013 18.743 39.475 18.9271C39.6102 17.9328 40.1007 17.0211 40.8559 16.3605C41.6111 15.6999 42.58 15.335 43.5834 15.3333H47.75L50.6563 14.4062C51.347 14.0579 51.9278 13.5251 52.3341 12.8669C52.7405 12.2086 52.9565 11.4506 52.9584 10.6771Z" fill="#FFAB6F"/>
<path d="M5.04169 10.6771V8.04166C5.04169 8.04166 15.4584 14.2917 21.7084 14.2917V18.1979C20.6615 18.4996 19.5988 18.743 18.525 18.9271C18.3899 17.9328 17.8994 17.0211 17.1441 16.3605C16.3889 15.6999 15.4201 15.335 14.4167 15.3333H10.25L7.34377 14.4062C6.65304 14.0579 6.07229 13.5251 5.66594 12.8669C5.25958 12.2086 5.04351 11.4506 5.04169 10.6771Z" fill="#FFAB6F"/>
<path d="M34.723 14.8321C35.0585 14.4963 34.9518 13.8457 34.4846 13.3789C34.0175 12.912 33.3668 12.8058 33.0313 13.1415C32.6958 13.4772 32.8025 14.1278 33.2697 14.5946C33.7369 15.0615 34.3875 15.1678 34.723 14.8321Z" fill="#EAF6FF"/>
<path d="M22.2229 38.7904C22.5583 38.4547 22.4516 37.8041 21.9844 37.3372C21.5173 36.8704 20.8666 36.7641 20.5311 37.0998C20.1956 37.4355 20.3024 38.0862 20.7695 38.553C21.2367 39.0198 21.8874 39.1261 22.2229 38.7904Z" fill="white"/>
<path d="M24.6588 13.8897C24.8268 13.7217 24.7736 13.3962 24.54 13.1628C24.3064 12.9294 23.9809 12.8764 23.8129 13.0444C23.645 13.2125 23.6982 13.538 23.9318 13.7714C24.1654 14.0048 24.4909 14.0578 24.6588 13.8897Z" fill="#EAF6FF"/>
<path d="M26.1894 42.7397C26.8571 42.0715 26.6443 40.7762 25.714 39.8466C24.7837 38.917 23.4883 38.7051 22.8206 39.3733C22.1529 40.0415 22.3657 41.3368 23.296 42.2664C24.2262 43.196 25.5216 43.4079 26.1894 42.7397Z" fill="white"/>
</svg>
