<svg width="112" height="112" viewBox="0 0 112 112" fill="none" xmlns="http://www.w3.org/2000/svg">
<circle cx="56" cy="56" r="56" fill="black" fill-opacity="0.25"/>
<path d="M79.0569 56.2759C79.0569 56.2759 74.131 54.9142 70.5267 54.1133C70.5267 54.1133 64.3993 53.3924 57.8715 54.1533C57.8715 54.1533 56.2295 58.1181 51.9845 58.3584L51.584 55.1145C51.584 55.1145 47.9396 54.3135 43.5343 53.5927C43.5343 53.5927 35.805 54.714 32.0005 55.7953L34.2832 59.9202L71.5279 61.4421L79.0569 56.2759Z" fill="url(#paint0_linear_101_586)"/>
<g style="mix-blend-mode:soft-light">
<path d="M37.1274 56.3558C36.8471 56.3558 33.0425 55.8352 32.8423 55.6349C32.6821 55.4747 41.1322 54.1131 42.8142 54.033C44.336 53.9529 48.7413 54.6337 49.5423 54.874C49.9027 54.9942 38.2487 56.2757 37.1274 56.3558Z" fill="#B6D3FF"/>
</g>
<g style="mix-blend-mode:multiply" opacity="0.5">
<path d="M44.335 54.6744C45.2561 54.5943 47.1384 54.8346 42.2925 55.6756C38.9285 56.2763 35.4043 56.1562 35.0839 55.9159C34.5633 55.5955 41.6918 54.9948 44.335 54.6744Z" fill="#D42F55"/>
</g>
<g style="mix-blend-mode:multiply" opacity="0.5">
<path d="M72.1305 54.6339C73.7725 54.8742 74.6135 55.1545 74.0128 55.2346C73.4521 55.3548 64.1209 54.5939 64.1209 54.1934C64.1209 53.7929 70.1281 54.3135 72.1305 54.6339Z" fill="#D42F55"/>
</g>
<path d="M38.8085 58.2383L32.4409 56.8767C32.4409 56.8767 36.0452 75.5391 37.9274 78.5427C39.7696 81.5463 48.1397 84.2295 48.9807 84.3897C51.3435 84.8302 58.1517 86.2319 58.1517 86.2319L56.4296 65.6072L38.8085 58.2383Z" fill="url(#paint1_linear_101_586)"/>
<g style="mix-blend-mode:multiply" opacity="0.5">
<path d="M43.2545 78.2632C43.2545 78.8639 37.888 78.063 37.5276 77.4623C37.2072 76.9016 33.8432 63.0049 34.0434 62.3642C34.2437 61.6834 38.9693 63.1251 39.1295 63.8459C39.2897 64.5668 43.2545 77.6625 43.2545 78.2632Z" fill="#D42F55"/>
</g>
<path d="M38.8085 58.2386L50.2222 56.1561C51.8642 60.9219 57.2707 62.1233 57.2707 62.1233H58.432C58.432 62.1233 63.8786 60.8017 65.4004 55.9559L77.1345 57.7581C77.2546 59.2799 73.6903 77.4216 72.2086 79.0236C70.7668 80.5454 60.1141 85.9118 58.2719 86.2322C58.2452 86.2322 58.2185 86.2322 58.1918 86.2322C58.1651 86.2322 58.1517 86.2322 58.1517 86.2322C56.3095 85.9118 45.6567 80.6255 44.175 79.1037C42.6932 77.5418 38.7284 59.7605 38.8085 58.2386Z" fill="url(#paint2_linear_101_586)"/>
<path d="M69.8466 78.1419C68.8054 78.8628 59.7545 83.8688 57.632 83.8688C56.5907 83.8688 46.6188 78.8628 45.4974 76.9004C44.3361 74.9381 42.4938 64.7659 42.7341 64.5656C43.0145 64.3253 72.9704 64.2052 73.451 64.7659C73.9716 65.4066 70.4874 77.7014 69.8466 78.1419Z" fill="url(#paint3_linear_101_586)"/>
<g style="mix-blend-mode:multiply" opacity="0.3">
<path d="M68.2446 76.3804C67.3235 78.1025 45.9779 74.1777 45.2571 73.2967C44.5762 72.4557 43.2146 67.1293 44.0556 66.2883C44.8966 65.4473 68.565 61.6427 70.247 63.8854C71.929 66.1281 69.0055 74.9387 68.2446 76.3804Z" fill="#D42F55"/>
</g>
<path d="M68.363 78.1429C67.4018 78.7836 59.6325 83.3091 56.5889 83.5093C56.8692 83.5894 57.4299 83.8697 57.6301 83.8697C59.7527 83.8697 68.8035 78.8637 69.8448 78.1429C70.4855 77.7023 73.9697 65.4076 73.4491 64.7668C73.0886 64.3263 56.709 64.3263 48.0587 64.4064C56.9493 64.3263 71.6469 64.3663 71.9673 64.8069C72.4879 65.4076 69.0037 77.7023 68.363 78.1429Z" fill="url(#paint4_linear_101_586)"/>
<g style="mix-blend-mode:multiply" opacity="0.8">
<path d="M48.539 84.2692C47.3777 81.9865 45.4153 79.8239 44.1338 79.8239C42.8923 79.8239 40.4093 79.7037 39.1678 79.103C37.9263 78.5423 35.163 67.1687 35.2031 66.9284C35.2431 66.6881 40.0088 68.8507 40.6496 69.0109C40.8498 69.091 43.493 69.4915 43.493 69.4915L43.6932 70.4927C43.6932 70.4927 47.4978 70.5728 47.7782 70.4927C48.2587 70.2924 49.4602 66.2476 57.0292 65.6068C62.0352 65.2063 66.3604 70.5327 66.3604 70.5327C66.3604 70.5327 69.2439 71.0934 70.8058 70.733C71.046 70.6529 72.5278 69.3713 72.7281 69.3313C74.3834 68.9575 75.211 68.7706 75.211 68.7706L75.6516 66.568C75.6516 66.568 65.2391 63.0437 57.8302 63.1639C50.4213 63.3241 34.0417 64.6457 34.0417 64.6457C34.0417 64.6457 36.4446 76.5399 38.0064 78.7025C39.5683 80.8651 41.6107 81.4658 44.0136 82.6673C46.4165 83.9088 48.539 84.2692 48.539 84.2692Z" fill="#D42F55"/>
</g>
<path d="M68.4429 68.8112L66.4405 67.9702C66.4405 67.9702 64.2379 65.8877 60.3132 65.327C54.1858 64.4459 49.9407 66.8889 49.9407 66.8889C49.9407 66.8889 53.3849 61.9229 60.6736 63.8853C68.0425 65.8476 68.4429 68.8112 68.4429 68.8112Z" fill="url(#paint5_linear_101_586)"/>
<path d="M51.5832 55.1143C54.8271 61.0013 58.111 60.4807 58.111 60.4807C58.111 60.4807 61.435 60.9212 64.5587 54.914C64.5587 54.914 72.8487 55.0742 79.0561 56.2757L76.9336 67.6893C76.9336 67.6893 71.487 68.7706 68.4434 68.8107C68.4434 68.8107 65.3196 64.6457 58.1911 64.7258C51.1026 64.8059 48.139 68.9709 48.139 68.9709C45.1354 69.0109 39.8491 67.9697 39.8491 67.9697L37.4863 56.8363C43.4134 55.5148 51.5832 55.1143 51.5832 55.1143Z" fill="url(#paint6_linear_101_586)"/>
<path d="M32.0005 55.7961L37.4871 56.8373L39.8499 67.9707C39.8499 67.9707 35.2844 66.3287 32.8815 64.9671L32.0005 55.7961Z" fill="url(#paint7_linear_101_586)"/>
<path d="M37.0464 55.7154C37.0464 55.7154 42.2526 55.9557 44.8557 54.8344C44.8557 54.8344 44.8557 50.5492 46.1373 46.2641C47.4188 41.9389 49.9819 37.6137 55.108 37.4535C58.3119 37.3334 60.4745 38.9754 61.9562 41.2181C61.9562 41.2181 61.9562 41.2314 61.9562 41.2581C65.12 46.1039 65.0399 53.9934 65.0399 53.9934C67.563 54.9145 72.5289 54.7142 72.5289 54.7142C72.5289 54.7142 72.6491 53.9133 72.7292 52.5116C72.8493 49.2277 72.609 42.7799 69.3251 36.4123C64.1188 26.2401 55.1881 25.9998 55.1881 25.9998C55.1881 25.9998 46.1773 26.7207 40.6907 37.3334C39.8898 38.8953 39.249 40.4571 38.7284 41.8989C36.1253 49.548 37.0464 55.7154 37.0464 55.7154Z" fill="url(#paint8_radial_101_586)"/>
<path d="M60.8342 80.5857L59.2723 73.4572C60.2335 72.8164 61.2747 71.655 61.2346 69.973C61.1546 67.8104 59.4325 66.4087 56.7493 66.3687C56.6692 66.3687 56.6158 66.3687 56.5891 66.3687C56.5624 66.3687 56.509 66.3687 56.4289 66.3687C55.9483 66.3286 54.9471 66.3687 53.986 66.7291C52.5442 67.2898 51.6632 68.4512 51.5831 69.973C51.503 71.7752 52.6644 72.9766 53.7056 73.5773C53.7056 73.5773 52.9447 80.7459 53.1049 80.9061C53.5054 81.2665 60.8342 80.5857 60.8342 80.5857Z" fill="url(#paint9_linear_101_586)"/>
<path d="M60.8345 80.5862C60.8345 80.5862 60.3139 73.5378 60.3539 73.4177C60.434 73.2975 62.3163 71.6555 62.2362 69.9735C62.1561 67.8109 60.434 66.4493 57.7909 66.3692C57.7375 66.3692 57.6841 66.3692 57.6307 66.3692C57.604 66.3692 57.5639 66.3692 57.5105 66.3692C56.9899 66.3692 56.0288 66.4092 55.1077 66.7697C53.6659 67.3304 52.8249 68.4517 52.7849 69.9735C52.7048 71.7757 53.8261 72.9371 54.8674 73.5378C54.8674 73.5378 54.3467 80.7464 54.3868 80.8265C54.4669 80.9066 60.6743 80.7865 60.8345 80.5862Z" fill="url(#paint10_linear_101_586)"/>
<path d="M53.9062 69.9725C53.9863 67.2492 57.6708 67.4895 57.6708 67.4895C57.6708 67.4895 60.7945 67.9701 60.9547 70.0526C61.1149 71.9749 59.2326 72.5756 59.2326 72.6958C59.2326 72.896 59.7532 79.0634 59.6331 79.3437C59.553 79.544 55.6283 79.5039 55.5883 79.3838C55.4681 79.1835 56.0688 72.9361 56.0688 72.7759C56.0688 72.6157 53.8662 71.9749 53.9062 69.9725Z" fill="url(#paint11_linear_101_586)"/>
<g style="mix-blend-mode:multiply" opacity="0.5">
<path d="M56.9107 67.5695C59.2335 67.5294 59.7941 69.4117 59.674 70.493C59.5538 71.5743 58.3123 72.7757 56.5502 72.6155C54.708 72.4553 53.867 70.8534 53.9071 70.1726C53.9872 69.4918 54.2274 67.6496 56.9107 67.5695Z" fill="#D42F55"/>
</g>
<g style="mix-blend-mode:multiply" opacity="0.5">
<path d="M56.4675 72.9366C56.9081 72.8966 57.7891 73.4572 57.9092 74.3383C58.0694 75.2193 58.6702 79.0239 58.4699 79.2241C58.2296 79.4244 55.7466 79.2642 55.7466 79.0239C55.7466 78.7836 55.7867 73.0167 56.4675 72.9366Z" fill="#D42F55"/>
</g>
<g style="mix-blend-mode:multiply" opacity="0.8">
<path d="M54.867 73.5376L53.7056 73.5776C53.7056 73.5776 51.7032 72.256 51.6632 70.8944C51.6231 69.5328 52.304 69.6929 52.5042 70.1335C52.7044 70.614 52.7044 70.9745 53.2651 71.9757C53.9459 73.2172 54.867 73.5376 54.867 73.5376Z" fill="#D42F55"/>
</g>
<g style="mix-blend-mode:multiply" opacity="0.8">
<path d="M60.8325 80.5857C59.9114 81.1064 57.2682 81.7471 56.7075 81.7471C56.1068 81.7471 53.1032 80.9061 53.1032 80.9061L54.3848 80.826L60.8325 80.5857Z" fill="#D42F55"/>
</g>
<g style="mix-blend-mode:multiply" opacity="0.5">
<path d="M62.0763 70.6541C62.0362 71.0946 61.2352 70.2937 61.1151 70.0534C60.6746 69.0522 60.5945 68.051 58.0715 67.4903C56.5096 67.1699 54.7074 67.8507 54.1067 68.6116C53.8664 68.892 53.1856 68.9721 53.2256 68.6917C53.4259 67.2901 56.029 65.8884 58.5921 66.5692C61.0751 67.25 62.3566 68.3714 62.0763 70.6541Z" fill="#FFAB55"/>
</g>
<path d="M61.9146 68.5713C61.9146 68.5713 60.3127 64.9669 54.4256 66.6089C54.4256 66.6089 59.1913 65.3274 61.9146 68.5713Z" fill="#FFCC16"/>
<g style="mix-blend-mode:multiply" opacity="0.5">
<path d="M64.3195 54.914C64.5198 54.5135 58.9932 54.0729 58.0721 54.3533C57.7116 54.4334 57.0708 56.636 53.6267 58.0377C53.6267 58.0377 56.2699 61.4017 59.4337 60.0001C62.1569 58.7586 63.5186 56.6761 64.3195 54.914Z" fill="#D42F55"/>
</g>
<g style="mix-blend-mode:soft-light" opacity="0.3">
<path d="M40.0893 66.2079C40.4097 66.7285 50.1414 66.6885 51.1025 66.1278C53.5455 64.8062 54.3464 62.3633 60.5539 62.8038C66.6011 63.2444 68.5635 65.5671 69.2043 65.9676C69.8851 66.3681 75.0112 65.8875 75.7721 65.447C76.5731 65.0065 78.135 58.6388 78.4954 56.8767C78.6155 56.276 65.0392 55.0746 64.5587 55.8355C63.5975 57.4374 61.2747 61.4822 57.1098 60.7614C53.7858 60.2408 52.2239 56.3961 51.4229 55.8355C51.3428 55.7554 51.0224 55.7153 50.5419 55.7153C50.5018 56.3961 50.2615 57.077 49.5807 57.1571C48.8198 57.2372 48.2191 56.5163 47.8186 55.8755C44.3344 56.1959 39.4486 56.8767 38.8078 57.0369C37.8066 57.2772 39.7289 65.7273 40.0893 66.2079Z" fill="white"/>
</g>
<g style="mix-blend-mode:soft-light">
<path d="M77.9768 57.5175C78.3372 59.6401 76.4149 65.2868 75.7741 65.447C75.1333 65.5672 64.7209 56.3161 66.0024 56.0357C67.2439 55.7153 77.8166 56.5964 77.9768 57.5175Z" fill="white"/>
</g>
<g style="mix-blend-mode:multiply" opacity="0.2">
<path d="M49.2198 66.5285C49.6603 66.5285 48.8994 68.0903 47.5378 68.4508C46.2162 68.8112 40.4893 68.2505 40.2491 67.5297C39.6884 65.9678 48.8594 66.5285 49.2198 66.5285Z" fill="#DA0553"/>
</g>
<g style="mix-blend-mode:screen" opacity="0.2">
<path d="M44.1349 79.8238C43.8946 80.4246 41.4116 80.2243 40.891 80.1042C39.1689 79.5835 38.4881 78.1819 38.8886 78.2219C39.8097 78.2219 44.3752 79.3833 44.1349 79.8238Z" fill="#FFB311"/>
</g>
<path d="M72.2068 79.0232C68.6425 81.346 59.5116 85.7112 58.19 85.7913C56.9085 85.8314 46.8964 83.3484 43.7326 82.1069C40.6089 80.8654 38.8868 79.664 38.8868 79.664C38.8868 79.664 42.0506 82.5074 48.5384 84.2695C55.0662 86.0717 57.6693 86.2719 58.1499 86.2319C59.7118 86.1918 62.5953 84.71 66.52 82.6275C70.4447 80.5851 72.2068 79.0232 72.2068 79.0232Z" fill="#E1332C"/>
<path d="M40.6523 69.0116C43.1353 74.418 44.1766 79.1037 44.1766 79.1037C44.1766 79.1037 43.1353 77.5818 41.9339 73.4569C40.6523 69.0516 40.6523 69.0116 40.6523 69.0116Z" fill="#FFE016"/>
<path d="M69.8459 78.1425C66.1214 80.5855 58.9528 83.7493 57.8315 83.8694C56.7101 83.9896 46.4178 78.9435 45.5367 77.5819C44.6557 76.2603 44.4554 73.8574 44.4554 73.8574C44.4554 73.8574 44.3754 75.0588 46.2576 77.4617C48.1399 79.8646 56.4698 83.1485 57.9116 83.1485C60.1142 83.1485 69.8459 78.1425 69.8459 78.1425Z" fill="#FFE016"/>
<g style="mix-blend-mode:soft-light" opacity="0.3">
<path d="M37.0879 57.3171C37.4884 58.6387 39.4908 67.1288 39.0503 67.249C38.6498 67.3691 35.0054 64.0051 34.7652 63.124C34.4047 61.6022 33.9241 56.7164 34.2846 56.6363C34.645 56.5562 36.8877 56.5962 37.0879 57.3171Z" fill="white"/>
</g>
<g style="mix-blend-mode:multiply" opacity="0.5">
<path d="M39.6898 68.2105C40.2905 69.0515 40.8512 71.6146 40.651 71.7748C40.4507 71.935 36.7263 74.9386 36.2857 73.8973C35.8452 72.8561 34.0831 65.9278 34.3234 65.9278C34.6037 65.9278 39.3694 67.77 39.6898 68.2105Z" fill="#D42F55"/>
</g>
<path d="M45.3756 55.9154C45.4156 56.2358 38.7676 58.9591 38.4873 58.8389C38.1669 58.7588 37.0055 56.9567 37.8465 56.7564C38.3271 56.6363 45.3756 55.9154 45.3756 55.9154Z" fill="#FFE016"/>
<g style="mix-blend-mode:multiply" opacity="0.3">
<path d="M64.0378 54.9147C62.5561 53.9135 59.0719 54.4341 58.7515 54.9948C58.4311 55.5955 57.4299 59.9607 58.2309 60.0008C59.6326 60.0809 61.1544 59.2799 62.3558 58.0384C63.5573 56.837 64.4383 55.195 64.0378 54.9147Z" fill="#D42F55"/>
</g>
<path d="M42.2935 56.3967C42.8942 56.4768 40.2511 57.8384 39.6504 57.7583C39.0096 57.7183 38.2086 56.9574 38.5691 56.7972C38.9295 56.637 41.853 56.3566 42.2935 56.3967Z" fill="white"/>
<path d="M79.0587 56.2757C77.4968 56.9565 65.5224 55.1944 64.5613 54.914C64.5613 54.914 71.2493 55.1143 74.7335 55.6349C78.1776 56.1155 79.0587 56.2757 79.0587 56.2757Z" fill="#FFE016"/>
<g style="mix-blend-mode:multiply" opacity="0.2">
<path d="M68.442 68.4906C67.5209 68.1702 66.3996 66.2079 62.7952 65.1666C57.8293 63.7249 52.0624 66.0077 52.2226 65.6472C52.8633 64.4057 58.1497 61.322 64.277 63.765C68.3219 65.3268 68.6823 68.5707 68.442 68.4906Z" fill="#DA0553"/>
</g>
<path d="M67.6428 65.9675C67.6428 65.9675 66.6016 63.2442 62.6368 62.3231C58.6721 61.4421 55.5884 63.4445 55.5884 63.4445C55.5884 63.4445 62.8771 60.9615 67.6428 65.9675Z" fill="#FFE016"/>
<path d="M38.4086 61.2421C39.0093 61.2821 40.411 64.0054 40.2108 65.0066C40.0506 65.9678 39.61 66.2881 39.3297 66.2481C39.0494 66.208 38.1683 64.486 37.9681 63.7251C37.7278 63.0042 37.928 61.202 38.4086 61.2421Z" fill="#DC2C00"/>
<path d="M40.1293 64.0858C40.2094 65.0069 39.9291 66.0482 39.4084 65.888C38.8478 65.7278 38.2871 64.6465 38.1269 64.206C38.1269 64.206 38.7276 66.0882 39.4885 66.3285C40.2494 66.5688 40.3696 65.1271 40.3295 64.8067C40.2895 64.4863 40.1293 64.0858 40.1293 64.0858Z" fill="#FFE016"/>
<g style="mix-blend-mode:multiply" opacity="0.5">
<path d="M39.6904 63.0446C40.171 64.4864 39.0096 64.8468 38.529 64.4864C38.0485 64.166 37.8082 63.325 37.8883 62.5641C37.9283 61.7631 38.2087 60.9221 38.6892 61.4027C39.1298 61.8032 39.4902 62.5641 39.6904 63.0446Z" fill="#D42F55"/>
</g>
<path d="M50.5418 55.1547C50.5017 56.0357 50.4617 57.3173 49.3804 57.1571C48.3392 56.9969 47.6183 55.395 47.6183 55.395C47.6183 55.395 47.6984 55.2348 48.8197 55.1547C49.9411 55.0345 50.5418 55.1547 50.5418 55.1547Z" fill="#DC2C00"/>
<g style="mix-blend-mode:multiply" opacity="0.5">
<path d="M49.1001 55.2745C49.5806 55.4747 49.6607 56.8764 49.2603 56.9965C48.8197 57.0766 47.7785 56.0354 47.6183 55.3946C47.6183 55.3946 48.6195 55.0742 49.1001 55.2745Z" fill="#D42F55"/>
</g>
<path d="M61.9943 61.8829C62.9154 62.043 63.2758 63.2044 63.0356 63.1243C62.8353 63.0442 59.9919 62.884 59.8718 62.7239C59.7516 62.5236 60.873 61.7227 61.9943 61.8829Z" fill="white"/>
<path d="M60.6334 67.0889C61.2342 67.6095 58.7111 66.9688 58.631 66.328C58.631 66.328 60.0728 66.5282 60.6334 67.0889Z" fill="white"/>
<path d="M41.933 72.7362C41.893 71.7751 43.3748 72.9364 43.6151 74.0978C43.8554 75.2993 43.3347 76.741 43.0143 76.4206C42.734 76.1002 42.0131 73.4971 41.933 72.7362Z" fill="white"/>
<g style="mix-blend-mode:soft-light">
<path d="M70.3258 45.6231C69.9253 45.6231 66.2009 32.7277 56.9498 32.4874C47.0179 32.2071 43.2133 43.9812 42.2522 44.1013C41.251 44.2615 40.0495 40.2968 41.3711 37.0929C43.9742 30.7253 52.2241 26.1999 56.7896 26.8006C61.3951 27.3613 66.6014 31.8867 68.7639 36.9728C71.0066 42.139 70.6863 45.6231 70.3258 45.6231Z" fill="white"/>
</g>
<g style="mix-blend-mode:soft-light">
<path d="M67.8023 35.5711C68.0026 36.2119 56.2285 30.1246 55.3073 29.4037C54.4263 28.7229 53.6253 26.5202 56.5088 26.7605C59.3922 27.0008 65.9601 29.4438 67.8023 35.5711Z" fill="white"/>
</g>
<path d="M48.0601 30.6851C48.6208 31.7264 44.8963 36.0115 44.0954 35.8513C43.2544 35.6511 43.2944 34.4497 44.4959 32.8477C45.3369 31.7264 47.8199 30.2446 48.0601 30.6851Z" fill="white"/>
<path d="M51.1031 28.8837C51.6637 29.7247 50.1019 30.005 49.5812 29.8048C49.1007 29.5645 50.5824 28.1628 51.1031 28.8837Z" fill="white"/>
<g style="mix-blend-mode:multiply" opacity="0.8">
<path d="M76.4135 55.555C77.8152 56.0756 78.496 56.396 78.496 56.8766C78.496 57.3572 77.7751 63.084 77.7751 63.084C77.7751 63.084 79.0567 56.396 79.0567 56.2759C79.0567 56.1557 76.4135 55.555 76.4135 55.555Z" fill="#923B66"/>
</g>
<g style="mix-blend-mode:multiply" opacity="0.5">
<path d="M61.9587 41.2184C61.9587 41.2184 61.9587 41.2317 61.9587 41.2584C65.1225 46.1042 65.0424 53.9937 65.0424 53.9937C67.5654 54.9148 72.5314 54.7145 72.5314 54.7145C72.5314 54.7145 72.6515 53.9136 72.7316 52.5119C70.7292 53.7934 69.4076 53.0325 68.6868 51.8711C67.9258 50.7498 67.0047 45.5836 64.762 42.3797C63.04 39.9368 61.6783 40.1371 61.9587 41.2184Z" fill="#FF3355"/>
</g>
<g style="mix-blend-mode:multiply" opacity="0.3">
<path d="M39.7292 44.502C40.3299 45.1027 42.933 54.2336 42.2923 54.6341C41.6515 54.9945 37.8069 55.8355 37.5265 54.7542C37.2462 53.6329 38.2474 42.9401 39.7292 44.502Z" fill="#FF3355"/>
</g>
<g style="mix-blend-mode:multiply" opacity="0.5">
<path d="M37.0464 55.7154C37.0464 55.7154 42.2526 55.9557 44.8557 54.8343C44.8557 54.8343 44.8557 50.5492 46.1373 46.2641C44.7356 49.4279 43.2538 51.4303 42.2526 50.4691C41.2915 49.4679 41.0111 39.496 38.7284 41.8988C36.1253 49.548 37.0464 55.7154 37.0464 55.7154Z" fill="#D42F55"/>
</g>
<g style="mix-blend-mode:screen" opacity="0.2">
<path d="M63.8384 42.4189C64.8396 42.6993 68.3639 52.7914 67.8432 53.6324C67.2826 54.4734 66.001 53.352 65.8408 52.5911C65.6406 51.7902 62.9574 42.1386 63.8384 42.4189Z" fill="#FFB311"/>
</g>
<path d="M70.6086 46.6644C71.3695 46.384 72.4107 50.8694 71.6899 51.2699C70.929 51.6704 69.5673 46.9848 70.6086 46.6644Z" fill="white"/>
<g style="mix-blend-mode:multiply" opacity="0.5">
<path d="M47.5388 42.7002C47.5388 42.7002 51.7438 33.5292 58.0313 36.2124C64.3589 38.9357 64.439 47.9065 64.439 47.9065C64.439 47.9065 63.0373 39.216 57.751 37.8144C50.3822 35.852 47.5388 42.7002 47.5388 42.7002Z" fill="#D42F55"/>
</g>
<g style="mix-blend-mode:multiply" opacity="0.8">
<path d="M70.6468 39.4159C70.6468 39.4159 66.4418 27.7619 55.3485 26.5204C55.3485 26.5204 48.0598 26.961 41.4919 35.8917C41.4919 35.8917 45.777 27.4816 55.1883 25.9998C55.1883 25.9998 65.6408 26.0799 70.6468 39.4159Z" fill="#D42F55"/>
</g>
<path d="M62.2351 35.4111C63.6768 35.9717 66.0396 38.8952 65.5991 39.3358C65.1586 39.8163 62.9159 38.735 61.8746 37.4135C60.9535 36.2921 61.1938 35.0506 62.2351 35.4111Z" fill="#DC2C00"/>
<path d="M64.4381 37.2132C64.4381 37.2132 66.1201 38.9352 65.6395 39.4959C65.2791 39.9364 63.1566 38.5748 63.1566 38.5748C63.1566 38.5748 64.6383 39.4158 65.1189 38.9753C65.5995 38.5348 64.4381 37.2132 64.4381 37.2132Z" fill="#FFC716"/>
<g style="mix-blend-mode:multiply" opacity="0.5">
<path d="M63.5191 36.2922C64.7205 37.3735 62.8783 38.2145 61.9572 37.2533C61.0361 36.2922 61.1562 35.4912 61.837 35.4512C62.5179 35.3711 63.1987 35.9718 63.5191 36.2922Z" fill="#D42F55"/>
</g>
<path d="M43.5749 60.2394C41.8929 60.2394 40.0106 63.6836 43.0943 64.5646C46.4984 65.5658 47.2593 60.2795 43.5749 60.2394Z" fill="url(#paint12_linear_101_586)"/>
<path d="M43.8537 60.8004C42.8125 60.7603 42.1316 61.4812 41.9715 62.4824C41.7712 63.6037 42.9726 64.3647 43.8938 64.3647C45.1753 64.4047 45.776 62.8829 45.6559 62.2021C45.5357 61.4812 44.5746 60.8004 43.8537 60.8004Z" fill="url(#paint13_linear_101_586)"/>
<g style="mix-blend-mode:multiply" opacity="0.4">
<path d="M43.0532 61.0008C42.8931 61.0008 42.1722 61.4012 42.0921 62.1221C41.9719 62.843 42.0921 63.2835 42.1722 63.2835C42.2523 63.3235 42.7329 63.0833 42.7729 63.0432C42.7729 63.0032 42.7729 62.4425 42.9731 62.1221C43.1734 61.7617 43.2134 61.6415 43.2134 61.6015C43.1734 61.5214 43.1333 60.9607 43.0532 61.0008Z" fill="#B82774"/>
</g>
<g style="mix-blend-mode:soft-light">
<path d="M43.2936 61.6819C42.8932 61.762 42.733 63.0435 42.8131 63.1236C43.0533 63.484 44.2147 63.5641 44.4951 63.444C44.6953 63.3238 44.9756 62.2426 44.8155 62.0423C44.6152 61.8421 43.574 61.6418 43.2936 61.6819Z" fill="white"/>
</g>
<g style="mix-blend-mode:multiply" opacity="0.8">
<path d="M42.8121 63.1237C42.6919 63.0035 42.2114 63.3239 42.2114 63.364C42.3716 63.8045 42.8121 64.1249 43.613 64.3251C44.2138 64.4452 44.8145 64.1249 44.9346 63.8846C44.9747 63.8045 44.5742 63.404 44.4941 63.4441C44.0135 63.6443 43.1325 63.404 42.8121 63.1237Z" fill="#B82774"/>
</g>
<path opacity="0.7" d="M43.1349 60.9213C43.0548 60.9213 43.1349 61.6021 43.215 61.6021C43.3351 61.6421 44.7768 62.0426 44.8169 62.0026C44.937 61.9625 45.4176 61.7623 45.3776 61.6021C45.3375 61.562 44.8569 61.0013 44.2562 60.8412C43.6155 60.681 43.255 60.8812 43.1349 60.9213Z" fill="white"/>
<path d="M43.8548 60.8005C43.8548 60.8005 44.4155 60.8406 44.896 61.201C44.896 61.201 44.9761 61.4813 44.5356 61.4413C44.1351 61.4012 43.8548 60.8005 43.8548 60.8005Z" fill="white"/>
<path d="M42.8139 62.7628C42.7739 62.7628 42.4935 63.0832 42.5336 63.1633C42.5736 63.2034 42.934 63.2434 42.934 63.2434C42.934 63.2034 42.894 62.7628 42.8139 62.7628Z" fill="white"/>
<path d="M44.6174 63.2842C44.4973 63.2442 44.2169 63.4444 44.2169 63.5245C44.257 63.5646 44.6975 63.5646 44.6975 63.5245C44.6975 63.5245 44.7375 63.2842 44.6174 63.2842Z" fill="white"/>
<path d="M41.4529 62.8825C41.4529 62.8825 41.6131 64.0439 43.0948 64.5646C44.4565 65.0451 45.2975 64.2041 45.3776 64.084C45.3776 64.084 44.4965 65.3655 42.8145 64.6847C41.4128 64.124 41.4529 62.8825 41.4529 62.8825Z" fill="url(#paint14_linear_101_586)"/>
<g style="mix-blend-mode:multiply" opacity="0.8">
<path d="M41.494 62.4027C41.9345 61.5216 42.9757 60.4403 44.4175 60.9209C45.8992 61.4415 45.7391 63.0434 45.7791 63.5641C45.7791 63.5641 47.1007 61.1211 45.0582 59.9597C44.0971 59.3991 43.0558 59.7995 42.4952 60.3602C41.6942 61.2012 41.494 62.4027 41.494 62.4027Z" fill="#D12774"/>
</g>
<path d="M50.7813 58.3592C49.0993 58.3592 47.2571 61.8034 50.3007 62.6844C53.7048 63.6856 54.4657 58.3993 50.7813 58.3592Z" fill="url(#paint15_linear_101_586)"/>
<path d="M51.066 58.9191C50.0247 58.8791 49.3439 59.6 49.1837 60.6012C48.9835 61.7225 50.225 62.4834 51.106 62.4834C52.3876 62.5235 52.9883 61.0016 52.8682 60.3208C52.748 59.5999 51.7869 58.9191 51.066 58.9191Z" fill="url(#paint16_linear_101_586)"/>
<g style="mix-blend-mode:multiply" opacity="0.4">
<path d="M50.262 59.1195C50.1018 59.1195 49.421 59.52 49.3008 60.2409C49.1807 60.9617 49.3008 61.4022 49.3809 61.4022C49.461 61.4423 49.9416 61.202 49.9816 61.162C49.9816 61.1219 49.9816 60.5612 50.1819 60.2409C50.3821 59.8804 50.4222 59.7603 50.4222 59.7202C50.3821 59.6401 50.3421 59.0795 50.262 59.1195Z" fill="#B82774"/>
</g>
<g style="mix-blend-mode:soft-light">
<path d="M50.504 59.8006C50.1435 59.8807 49.9433 61.1623 50.0234 61.2424C50.2637 61.6028 51.4251 61.6829 51.7054 61.5627C51.9457 61.4426 52.226 60.3613 52.0258 60.1611C51.8256 59.9608 50.7843 59.7606 50.504 59.8006Z" fill="white"/>
</g>
<g style="mix-blend-mode:multiply" opacity="0.8">
<path d="M50.0222 61.2424C49.902 61.1223 49.4214 61.4427 49.4214 61.4827C49.5816 61.9232 50.0222 62.2436 50.8231 62.4438C51.4238 62.564 52.0646 62.2436 52.1447 62.0033C52.2248 61.9232 51.8243 61.5227 51.7042 61.5628C51.2236 61.763 50.3426 61.5227 50.0222 61.2424Z" fill="#B82774"/>
</g>
<path opacity="0.7" d="M50.3442 59C50.2641 59.04 50.3843 59.7208 50.4243 59.7208C50.5444 59.7609 51.9862 60.1613 52.0262 60.1213C52.1464 60.0812 52.667 59.881 52.5869 59.7208C52.5869 59.6808 52.0663 59.1201 51.4656 58.9599C50.8248 58.7997 50.4643 58.9599 50.3442 59Z" fill="white"/>
<path d="M51.0635 58.9193C51.0635 58.9193 51.6241 58.9593 52.1448 59.3197C52.1448 59.3197 52.1848 59.6001 51.7443 59.56C51.3438 59.52 51.0635 58.9193 51.0635 58.9193Z" fill="white"/>
<path d="M50.0226 60.8819C49.9825 60.8419 49.7022 61.2023 49.7422 61.2424C49.7823 61.3225 50.1427 61.3625 50.1427 61.3625C50.1427 61.3225 50.1027 60.8819 50.0226 60.8819Z" fill="white"/>
<path d="M51.8643 61.403C51.7041 61.363 51.4238 61.5632 51.4638 61.6032C51.4638 61.6833 51.9043 61.6833 51.9043 61.6433C51.9444 61.6032 51.9444 61.403 51.8643 61.403Z" fill="white"/>
<path d="M48.6616 60.9619C48.6616 60.9619 48.8618 62.1633 50.3036 62.6839C51.6652 63.1645 52.5062 62.3235 52.5863 62.2033C52.5863 62.2033 51.7053 63.4448 50.0232 62.8041C48.6216 62.2434 48.6616 60.9619 48.6616 60.9619Z" fill="url(#paint17_linear_101_586)"/>
<g style="mix-blend-mode:multiply" opacity="0.8">
<path d="M48.7026 60.5214C49.1432 59.6403 50.1844 58.5591 51.6662 59.0396C53.1079 59.5603 52.9878 61.1221 52.9878 61.6828C52.9878 61.6828 54.3094 59.2399 52.2669 58.0785C51.3058 57.5178 50.2645 57.9183 49.7038 58.479C48.9029 59.32 48.7026 60.5214 48.7026 60.5214Z" fill="#D12774"/>
</g>
<path d="M65.2436 58.1594C63.6016 58.5199 62.5203 62.2844 65.7241 62.5247C69.2484 62.7249 68.8479 57.4386 65.2436 58.1594Z" fill="url(#paint18_linear_101_586)"/>
<path d="M65.6444 58.6397C64.6432 58.8399 64.1226 59.6809 64.1626 60.6821C64.2427 61.8435 65.5643 62.3241 66.4454 62.1239C67.7269 61.8836 67.9672 60.2817 67.7269 59.6409C67.4466 58.9601 66.3653 58.5195 65.6444 58.6397Z" fill="url(#paint19_linear_101_586)"/>
<g style="mix-blend-mode:multiply" opacity="0.4">
<path d="M64.8843 59.0003C64.7642 59.0804 64.1635 59.601 64.2035 60.3219C64.2436 61.0828 64.4438 61.4432 64.5239 61.4432C64.604 61.4432 65.0445 61.1228 65.0445 61.0828C65.0445 61.0427 64.9644 60.5221 65.0445 60.1216C65.1647 59.7612 65.2047 59.641 65.1646 59.5609C65.1246 59.5209 65.0045 58.9602 64.8843 59.0003Z" fill="#B82774"/>
</g>
<g style="mix-blend-mode:soft-light">
<path d="M65.284 59.6408C64.9236 59.801 65.0437 61.0825 65.1238 61.1226C65.4442 61.483 66.5656 61.2828 66.8459 61.0825C67.0461 60.9624 67.0862 59.8411 66.8459 59.6809C66.6056 59.5207 65.5644 59.5207 65.284 59.6408Z" fill="white"/>
</g>
<g style="mix-blend-mode:multiply" opacity="0.8">
<path d="M65.124 61.1225C65.0039 61.0824 64.5633 61.4429 64.6034 61.4829C64.8437 61.9234 65.3643 62.1637 66.1252 62.1237C66.766 62.1237 67.3266 61.6832 67.3667 61.4429C67.4067 61.3227 66.9262 61.0424 66.8461 61.0824C66.4055 61.4028 65.4844 61.3628 65.124 61.1225Z" fill="#B82774"/>
</g>
<path opacity="0.7" d="M64.9641 58.9199C64.9241 58.9599 65.1243 59.6007 65.2044 59.6007C65.3245 59.6007 66.8063 59.6808 66.8464 59.6407C66.9665 59.5606 67.407 59.2403 67.2869 59.1201C67.2869 59.0801 66.6862 58.6395 66.0454 58.6395C65.4046 58.5995 65.0842 58.8398 64.9641 58.9199Z" fill="white"/>
<path d="M65.6434 58.64C65.6434 58.64 66.204 58.5599 66.7647 58.8002C66.7647 58.8002 66.8849 59.0805 66.4443 59.1206C66.0439 59.1606 65.6434 58.64 65.6434 58.64Z" fill="white"/>
<path d="M65.0436 60.8023C65.0036 60.8023 64.8034 61.2028 64.8434 61.2428C64.9235 61.2829 65.2839 61.2428 65.2839 61.2428C65.2439 61.2028 65.1237 60.7623 65.0436 60.8023Z" fill="white"/>
<path d="M66.9257 60.9229C66.8056 60.9229 66.5653 61.1631 66.6053 61.2032C66.6053 61.2833 67.0459 61.2032 67.0459 61.1631C67.0459 61.1231 67.0459 60.9229 66.9257 60.9229Z" fill="white"/>
<path d="M63.7613 61.2034C63.7613 61.2034 64.1618 62.3247 65.7237 62.525C67.1253 62.6852 67.7661 61.684 67.8462 61.5638C67.8462 61.5638 67.2455 62.9655 65.4834 62.6852C63.9616 62.4449 63.7613 61.2034 63.7613 61.2034Z" fill="url(#paint20_linear_101_586)"/>
<g style="mix-blend-mode:multiply" opacity="0.8">
<path d="M63.6822 60.7622C63.9224 59.761 64.6833 58.4794 66.2452 58.6797C67.8071 58.8399 67.9673 60.4418 68.0874 60.9224C68.0874 60.9224 68.8884 58.2792 66.6457 57.5984C65.5644 57.238 64.6433 57.8387 64.2428 58.5195C63.602 59.5207 63.6822 60.7622 63.6822 60.7622Z" fill="#D12774"/>
</g>
<path d="M71.7271 60.4809C70.045 60.8413 68.9637 64.6058 72.1676 64.8061C75.6918 65.0463 75.2913 59.72 71.7271 60.4809Z" fill="url(#paint21_linear_101_586)"/>
<path d="M72.0893 60.9608C71.0881 61.161 70.5674 62.002 70.6075 63.0032C70.6876 64.1646 72.0092 64.6052 72.8902 64.445C74.1718 64.2047 74.412 62.6028 74.1718 61.9219C73.8914 61.2812 72.8101 60.8006 72.0893 60.9608Z" fill="url(#paint22_linear_101_586)"/>
<g style="mix-blend-mode:multiply" opacity="0.4">
<path d="M71.3651 61.3219C71.2049 61.3619 70.6042 61.8825 70.6442 62.6435C70.6843 63.3643 70.8845 63.7648 70.9646 63.7648C71.0447 63.7648 71.4853 63.4044 71.4853 63.3643C71.5253 63.3243 71.4052 62.8036 71.5253 62.4432C71.6054 62.0427 71.6454 61.9226 71.6454 61.8825C71.6054 61.8024 71.4452 61.2818 71.3651 61.3219Z" fill="#B82774"/>
</g>
<g style="mix-blend-mode:soft-light">
<path d="M71.7274 61.9627C71.4071 62.1229 71.4871 63.3644 71.5672 63.4445C71.8876 63.7649 73.049 63.5647 73.2893 63.4045C73.4896 63.2443 73.5296 62.163 73.2893 61.9627C73.049 61.8026 72.0078 61.8426 71.7274 61.9627Z" fill="white"/>
</g>
<g style="mix-blend-mode:multiply" opacity="0.8">
<path d="M71.5647 63.4442C71.4446 63.3641 71.0041 63.7646 71.0441 63.8046C71.2844 64.2051 71.8051 64.4454 72.606 64.4454C73.2468 64.4454 73.7674 64.0049 73.8075 63.7245C73.8475 63.6444 73.3669 63.3241 73.2868 63.4042C72.8463 63.7245 71.9652 63.6445 71.5647 63.4442Z" fill="#B82774"/>
</g>
<path opacity="0.7" d="M71.447 61.2015C71.3669 61.2416 71.5671 61.8823 71.6472 61.8823C71.7673 61.8823 73.2491 61.9624 73.2892 61.9224C73.4093 61.8823 73.8498 61.5619 73.7697 61.4018C73.7297 61.3617 73.129 60.9612 72.4882 60.9212C71.8475 60.9212 71.5271 61.1615 71.447 61.2015Z" fill="white"/>
<path d="M72.0882 60.9608C72.0882 60.9608 72.6889 60.8807 73.2095 61.1209C73.2095 61.1209 73.3297 61.4013 72.8892 61.4413C72.4887 61.4814 72.0882 60.9608 72.0882 60.9608Z" fill="white"/>
<path d="M71.4866 63.0838C71.4465 63.0838 71.2863 63.4843 71.3264 63.5243C71.3664 63.5644 71.7269 63.5644 71.7269 63.5243C71.6868 63.5243 71.5667 63.0838 71.4866 63.0838Z" fill="white"/>
<path d="M73.4092 63.2038C73.2491 63.2038 73.0088 63.4842 73.0488 63.5242C73.0488 63.5643 73.4893 63.4842 73.5294 63.4441C73.5294 63.4041 73.4893 63.2038 73.4092 63.2038Z" fill="white"/>
<path d="M70.2061 63.4844C70.2061 63.4844 70.6066 64.6057 72.1685 64.806C73.5701 64.9662 74.2109 63.9649 74.291 63.8448C74.291 63.8448 73.6903 65.2865 71.9282 64.9662C70.4064 64.7259 70.2061 63.4844 70.2061 63.4844Z" fill="url(#paint23_linear_101_586)"/>
<g style="mix-blend-mode:multiply" opacity="0.8">
<path d="M70.1256 63.0436C70.3659 62.0824 71.1268 60.8009 72.6887 60.9611C74.2506 61.1213 74.4508 62.7232 74.571 63.2438C74.571 63.2438 75.3319 60.5606 73.1292 59.8798C72.0479 59.5594 71.1268 60.1601 70.6863 60.841C70.0456 61.8422 70.1256 63.0436 70.1256 63.0436Z" fill="#D12774"/>
</g>
<defs>
<linearGradient id="paint0_linear_101_586" x1="32.0005" y1="53.5927" x2="79.0569" y2="53.5927" gradientUnits="userSpaceOnUse">
<stop stop-color="#FF8100"/>
<stop offset="1" stop-color="#FFBA00"/>
</linearGradient>
<linearGradient id="paint1_linear_101_586" x1="58.5922" y1="47.3853" x2="71.0471" y2="81.5463" gradientUnits="userSpaceOnUse">
<stop stop-color="#FF5900"/>
<stop offset="0.2" stop-color="#FE6800"/>
<stop offset="0.7" stop-color="#FA9300"/>
<stop offset="0.8" stop-color="#F66A00"/>
<stop offset="1" stop-color="#F63F00"/>
</linearGradient>
<linearGradient id="paint2_linear_101_586" x1="69.205" y1="50.0288" x2="70.5265" y2="63.2046" gradientUnits="userSpaceOnUse">
<stop stop-color="#FF8100"/>
<stop offset="1" stop-color="#FFBB34"/>
</linearGradient>
<linearGradient id="paint3_linear_101_586" x1="45.0569" y1="61.7222" x2="68.445" y2="64.9261" gradientUnits="userSpaceOnUse">
<stop stop-color="#FF8100"/>
<stop offset="1" stop-color="#FFBB34"/>
</linearGradient>
<linearGradient id="paint4_linear_101_586" x1="68.0026" y1="66.4889" x2="68.0026" y2="96.3247" gradientUnits="userSpaceOnUse">
<stop stop-color="#FFBA00"/>
<stop offset="0.2" stop-color="#FE6800"/>
<stop offset="1" stop-color="#D41B00"/>
</linearGradient>
<linearGradient id="paint5_linear_101_586" x1="60.4734" y1="60.8016" x2="60.4734" y2="63.0042" gradientUnits="userSpaceOnUse">
<stop stop-color="#DE330E"/>
<stop offset="1" stop-color="#930000"/>
</linearGradient>
<linearGradient id="paint6_linear_101_586" x1="39.769" y1="54.914" x2="70.9664" y2="54.914" gradientUnits="userSpaceOnUse">
<stop stop-color="#FFAC15"/>
<stop offset="0.6" stop-color="#FF8100"/>
<stop offset="0.7" stop-color="#FFA400"/>
<stop offset="1" stop-color="#FFBA00"/>
</linearGradient>
<linearGradient id="paint7_linear_101_586" x1="32.0005" y1="55.7961" x2="39.8499" y2="55.7961" gradientUnits="userSpaceOnUse">
<stop stop-color="#FF5900"/>
<stop offset="0.2" stop-color="#FE6800"/>
<stop offset="1" stop-color="#E82C00"/>
</linearGradient>
<radialGradient id="paint8_radial_101_586" cx="0" cy="0" r="1" gradientUnits="userSpaceOnUse" gradientTransform="translate(53.9867 44.6221) scale(15.4585 15.4585)">
<stop stop-color="#FFEA34"/>
<stop offset="0.6" stop-color="#FF8100"/>
<stop offset="0.9" stop-color="#FFA400"/>
<stop offset="1" stop-color="#FFBA00"/>
</radialGradient>
<linearGradient id="paint9_linear_101_586" x1="67.6824" y1="67.3699" x2="67.6824" y2="84.3102" gradientUnits="userSpaceOnUse">
<stop stop-color="#D41B00"/>
<stop offset="0.8" stop-color="#FE6800"/>
</linearGradient>
<linearGradient id="paint10_linear_101_586" x1="43.9743" y1="61.6035" x2="63.2374" y2="65.368" gradientUnits="userSpaceOnUse">
<stop stop-color="#FF8100"/>
<stop offset="1" stop-color="#FFBB34"/>
</linearGradient>
<linearGradient id="paint11_linear_101_586" x1="67.5626" y1="67.4895" x2="67.5626" y2="88.9553" gradientUnits="userSpaceOnUse">
<stop stop-color="#DE330E"/>
<stop offset="1" stop-color="#930000"/>
</linearGradient>
<linearGradient id="paint12_linear_101_586" x1="46.3382" y1="61.0004" x2="44.1356" y2="66.527" gradientUnits="userSpaceOnUse">
<stop offset="0.1" stop-color="#FF4B00"/>
<stop offset="1" stop-color="#FF7204"/>
</linearGradient>
<linearGradient id="paint13_linear_101_586" x1="41.1304" y1="64.0843" x2="42.6923" y2="59.639" gradientUnits="userSpaceOnUse">
<stop stop-color="#DE0086"/>
<stop offset="1" stop-color="#FF003B"/>
</linearGradient>
<linearGradient id="paint14_linear_101_586" x1="41.7733" y1="62.0415" x2="46.0183" y2="63.5233" gradientUnits="userSpaceOnUse">
<stop stop-color="#FFDE00"/>
<stop offset="1" stop-color="#FFE834"/>
</linearGradient>
<linearGradient id="paint15_linear_101_586" x1="53.5446" y1="59.1201" x2="51.342" y2="64.6468" gradientUnits="userSpaceOnUse">
<stop offset="0.1" stop-color="#FF4B00"/>
<stop offset="1" stop-color="#FF7204"/>
</linearGradient>
<linearGradient id="paint16_linear_101_586" x1="48.3427" y1="62.2031" x2="49.9046" y2="57.7577" gradientUnits="userSpaceOnUse">
<stop stop-color="#DE0086"/>
<stop offset="1" stop-color="#FF003B"/>
</linearGradient>
<linearGradient id="paint17_linear_101_586" x1="48.982" y1="60.1208" x2="53.2271" y2="61.6427" gradientUnits="userSpaceOnUse">
<stop stop-color="#FFDE00"/>
<stop offset="1" stop-color="#FFE834"/>
</linearGradient>
<linearGradient id="paint18_linear_101_586" x1="67.9268" y1="58.6" x2="67.1258" y2="63.4458" gradientUnits="userSpaceOnUse">
<stop offset="0.1" stop-color="#FF4B00"/>
<stop offset="1" stop-color="#FF7204"/>
</linearGradient>
<linearGradient id="paint19_linear_101_586" x1="63.7621" y1="62.1239" x2="64.2828" y2="58.1591" gradientUnits="userSpaceOnUse">
<stop stop-color="#DE0086"/>
<stop offset="1" stop-color="#FF003B"/>
</linearGradient>
<linearGradient id="paint20_linear_101_586" x1="63.8013" y1="60.883" x2="68.0464" y2="61.4437" gradientUnits="userSpaceOnUse">
<stop stop-color="#FFDE00"/>
<stop offset="1" stop-color="#FFE834"/>
</linearGradient>
<linearGradient id="paint21_linear_101_586" x1="74.3702" y1="60.9214" x2="73.5693" y2="65.7672" gradientUnits="userSpaceOnUse">
<stop offset="0.1" stop-color="#FF4B00"/>
<stop offset="1" stop-color="#FF7204"/>
</linearGradient>
<linearGradient id="paint22_linear_101_586" x1="70.207" y1="64.445" x2="70.7276" y2="60.4802" gradientUnits="userSpaceOnUse">
<stop stop-color="#DE0086"/>
<stop offset="1" stop-color="#FF003B"/>
</linearGradient>
<linearGradient id="paint23_linear_101_586" x1="70.2462" y1="63.164" x2="74.4913" y2="63.7247" gradientUnits="userSpaceOnUse">
<stop stop-color="#FFDE00"/>
<stop offset="1" stop-color="#FFE834"/>
</linearGradient>
</defs>
</svg>
